<svg xmlns="http://www.w3.org/2000/svg" enable-background="new 0 0 256 256" viewBox="0 0 256 256"><circle cx="128" cy="128" r="118.218" fill="#FF4A73"/><path fill="#F973A3" d="M135.5,245.98c-2.48,0.16-4.98,0.24-7.5,0.24C62.71,246.22,9.78,193.29,9.78,128
							C9.78,59.648,67.59,5.639,135.5,10.02C73.7,13.88,24.78,65.23,24.78,128S73.7,242.12,135.5,245.98z"/><path fill="#EA2A6A" d="M246.22,128c0,65.29-52.93,118.22-118.22,118.22c-2.52,0-5.02-0.08-7.5-0.24
							c61.8-3.86,110.72-55.21,110.72-117.98S182.3,13.88,120.5,10.02C188.434,5.638,246.22,59.67,246.22,128z"/><path fill="#FFE2E2" d="M191.55,83.19c-7.8-18.49-26.539-32.034-46.709-34.559c-20.59-2.578-47.216,6.588-61.336,22.168
				c-14.25,15.723-22.048,38.764-14.865,59.154c1.396,3.963,3.437,6.527,5.59,8.125c1.73,1.283,4.193,0.824,5.455-0.921
				l8.054-11.147c0.63-0.872,0.878-1.956,0.682-3.014c-1.085-5.846-3.82-25.65,13.579-40.73
				c11.056-9.582,31.396-15.568,45.545-11.717c17.127,4.661,28.186,19.777,26.677,37.381c-3.553,41.435-31.555,48.172-43.034,28.115
				c4.623-15.564,10.201-32.881-4.903-40.128c-7.669-3.679-26.982,1.37-20.382,32.716c0.363,1.723,2.95,7.056,2.477,8.505
				c-4.126,12.645-7.936,25.676-12.939,38.003c-4.753,11.71-5.2,23.156-5.075,35.803c0.032,3.201,1.063,7.348,5.346,5.556
				c3.501-1.464,7.956-7.711,10.442-10.756c3.636-4.456,5.04-11.473,6.921-16.791c1.035-2.901,11.922-28.439,10.55-29.578
				c19.274,15.926,45.336,7.478,58.679-10.786C193.63,133.083,199.908,103.002,191.55,83.19z"/><path fill="#5F266D" d="M128,5.782C60.609,5.782,5.782,60.609,5.782,128c0,67.391,54.827,122.218,122.218,122.218
			S250.218,195.391,250.218,128C250.218,60.609,195.391,5.782,128,5.782z M128,242.218C65.02,242.218,13.782,190.98,13.782,128
			C13.782,65.02,65.02,13.782,128,13.782S242.218,65.02,242.218,128C242.218,190.98,190.98,242.218,128,242.218z"/><path fill="#5F266D" d="M103.76 39.854c3.073-.779 6.267-1.418 9.495-1.898 2.185-.325 3.693-2.36 3.368-4.545-.325-2.185-2.354-3.691-4.545-3.368-3.493.52-6.954 1.211-10.286 2.057-2.141.543-3.437 2.719-2.893 4.861C99.444 39.108 101.626 40.397 103.76 39.854zM90.206 44.481c2.024-.884 2.949-3.242 2.065-5.267-.885-2.024-3.243-2.949-5.267-2.065C54.332 51.415 42.778 78.655 42.303 79.807c-.843 2.042.129 4.381 2.171 5.224 2.046.844 4.382-.132 5.224-2.171C49.802 82.607 60.461 57.468 90.206 44.481zM145.339 44.662c-22.301-2.79-50.152 7.291-64.797 23.452C63.95 86.42 57.797 111.216 64.867 131.282c1.99 5.649 6.669 12.389 12.802 11.437 4.205-.65 4.953-2.797 13.312-14.366 1.266-1.751 1.766-3.969 1.374-6.086-7.182-38.695 34.699-53.149 54.14-47.858 15.54 4.229 25.081 17.563 23.742 33.179-1.979 23.074-11.421 33.223-19.599 35.027-5.713 1.26-11.263-1.398-15.106-7.146 4.635-15.581 10.078-34.717-7.518-43.159-10.77-5.168-33.288 2.658-26.026 37.147.375 1.781 1.986 5.254 2.397 7.028-3.997 12.289-7.8 25.2-12.651 37.151-5.173 12.745-5.491 24.938-5.369 37.347.042 4.204 1.342 7.268 3.76 8.86 7.364 4.85 15.108-6.651 19.126-11.57 4.6-5.638 5.102-11.916 9.386-22.464 1.901-4.68 5.568-13.693 7.611-19.675 20.349 12.268 45.745 3.348 59.284-15.185 11.923-16.32 18.667-48.066 9.704-69.314C186.923 61.929 167.337 47.416 145.339 44.662zM179.072 146.23c-11.956 16.365-35.425 24.502-52.901 10.062-2.878-2.377-7.149.155-6.482 3.805-1.02 5.296-9.272 23.676-11.796 31.899-1.279 4.167-2.603 8.477-4.84 11.218-1.77 2.171-6.067 7.978-8.52 9.41-.211-1-1.5-20.917 4.614-35.98 5.051-12.445 8.913-25.626 13.035-38.266 1.084-3.32-1.89-8.519-2.365-10.57-5.713-27.134 9.392-30.851 14.737-28.286 11.285 5.414 7.979 17.982 2.799 35.383-.311 1.048-.18 2.177.363 3.126 5.589 9.767 15.031 14.516 24.646 12.396 10.955-2.417 23.497-14.76 25.846-42.156 1.654-19.289-10.523-36.388-29.612-41.583-25.109-6.833-72.485 12.249-64.098 56.978l-8.018 11.098c-1.735-1.338-3.102-3.403-4.066-6.14-6.107-17.335-.59-38.978 14.056-55.139 12.839-14.167 38.265-23.34 57.875-20.885 18.919 2.368 36.409 15.286 43.52 32.145C195.658 103.219 189.486 131.976 179.072 146.23z"/></svg>