<svg xmlns="http://www.w3.org/2000/svg" enable-background="new 0 0 256 256" viewBox="0 0 256 256"><polygon fill="#44C7B6" points="42.795 77.046 166.535 36.798 160.112 244.03 25.669 215.771"/><polygon fill="#44C7B6" points="203.785 52.854 181.948 52.854 166.535 36.798 160.112 244.03 230.331 224.334"/><path fill="#FFE2E2" d="M134.795,93.744l-9.056,28.259c0,0-24.285-12.631-31.564-1.927c0,0-8.676,7.014,18.367,28.071
				c16.132,12.561,18.475,37.579-4.105,53.148c-12.045,8.305-38.509,7.56-52.583-8.859l7.493-20.552c0,0,10.52,14.093,26.783,8.067
				c5.669-2.101,7.46-15.929-14.152-29.909C50.719,133.704,66.108,79.224,134.795,93.744z"/><polygon fill="#3BB2A0" points="230.332 224.338 215.675 228.448 188.483 52.854 203.782 52.854"/><polygon fill="#4BDBC3" points="60.693 71.223 42.416 219.289 25.668 215.77 42.793 77.047"/><path fill="#5F266D" d="M234.284,223.722L207.738,52.243c-0.302-1.95-1.98-3.388-3.953-3.388h-20.132l-14.232-14.826
			c-1.052-1.099-2.672-1.505-4.123-1.034l-10.662,3.468c-3.233-11.309-10.032-18.599-20.858-17.209
			C128.251,8.11,117.836,5.975,109.86,9.574C83.772,21.354,74.526,47.511,71.263,63.58l-29.706,9.662
			c-1.477,0.48-2.542,1.772-2.732,3.313L21.699,215.281c-0.255,2.063,1.113,3.977,3.146,4.405l134.443,28.259
			c0.661,0.14,1.316,0.102,1.903-0.063l70.219-19.696C233.36,227.639,234.594,225.722,234.284,223.722z M147.022,38.939l-8.361,2.72
			c-0.259-5.444-0.932-10.31-2.021-14.538C142.683,27.523,145.382,33.015,147.022,38.939z M128.997,29.495
			c1.034,4.154,1.624,9.084,1.761,14.733l-23.595,7.675C112.537,41.898,119.852,34.398,128.997,29.495z M113.152,16.865
			c4.158-1.877,9.065-0.651,11.66,2.901c0.479,0.66,0.925,1.391,1.35,2.165c-13.146,6.726-23.023,17.94-29.427,33.364l-16.634,5.41
			C84.112,44.564,93.118,25.912,113.152,16.865z M46.453,80.063l115.907-37.7l-6.099,196.771L30.089,212.613L46.453,80.063z
			 M164.279,238.707c0.14-4.512,5.819-187.766,5.959-192.274l8.824,9.192c0.755,0.786,1.797,1.23,2.886,1.23h18.408l25.479,164.586
			L164.279,238.707z"/><path fill="#5F266D" d="M135.622 89.831c-42.093-8.899-64.975 7.036-72.35 24.917-6.104 14.798-1.773 30.693 10.532 38.654 12.584 8.139 16.482 16.169 15.998 20.573-.154 1.402-.72 2.099-1.063 2.227-13.177 4.881-21.836-6.247-22.188-6.708-1.885-2.53-5.87-1.976-6.963 1.022l-7.492 20.552c-.495 1.357-.22 2.876.721 3.973 15.015 17.518 43.451 19.505 57.891 9.549 11.451-7.896 17.947-18.794 18.292-30.688.319-11.027-4.914-21.834-14.001-28.909-19.801-15.418-18.196-21.569-18.01-22.073.184-.181.349-.379.493-.592 3.975-5.846 19.513-.351 26.411 3.226 2.204 1.144 4.899.028 5.655-2.328l9.056-28.259C139.328 92.703 137.933 90.319 135.622 89.831zM123.317 116.453c-8.109-3.477-24.948-9.017-32.222 1.048-.862.929-2.276 2.968-2.246 6.315.067 7.32 7.212 16.569 21.235 27.488 7.082 5.515 11.164 13.875 10.918 22.365-.269 9.28-5.538 17.922-14.836 24.333-9.792 6.751-32.644 6.709-45.721-6.483l4.515-12.384c5.907 4.682 15.402 8.701 26.559 4.566 3.434-1.272 5.765-4.582 6.235-8.853.479-4.346-.475-15.791-19.604-28.165-9.016-5.832-12.093-17.71-7.482-28.886 5.905-14.314 24.451-26.979 58.941-20.981L123.317 116.453zM197.612 134.323c-2.189.295-3.726 2.309-3.431 4.498l2.182 16.206c.294 2.192 2.312 3.726 4.497 3.431 2.189-.295 3.726-2.309 3.431-4.498l-2.182-16.206C201.815 135.565 199.798 134.028 197.612 134.323zM201.795 165.395c-2.189.295-3.726 2.309-3.431 4.498l5.736 42.616c.294 2.192 2.312 3.726 4.497 3.431 2.189-.295 3.726-2.309 3.431-4.498l-5.736-42.616C205.998 166.637 203.98 165.103 201.795 165.395z"/></svg>