<svg xmlns="http://www.w3.org/2000/svg" enable-background="new 0 0 256 256" viewBox="0 0 256 256"><path fill="#F9D335" d="M182.922,241.458H73.077c-31.731,0-57.454-25.723-57.454-57.454V71.996
					c0-31.731,25.723-57.454,57.454-57.454h109.845c31.731,0,57.454,25.723,57.454,57.454v112.007
					C240.376,215.735,214.653,241.458,182.922,241.458z"/><path fill="#F9E27D" d="M94.077,241.462H75.5c-33.068,0-59.881-24.685-59.881-55.129V69.667
					c0-30.443,26.813-55.129,59.881-55.129h18.577c-33.068,0-59.881,24.685-59.881,55.129v116.666
					C34.196,216.776,61.01,241.462,94.077,241.462z"/><path fill="#F2C300" d="M240.381,69.667v116.666c0,30.443-26.813,55.129-59.881,55.129h-18.577
					c33.068,0,59.881-24.685,59.881-55.129V69.667c0-30.443-26.813-55.129-59.881-55.129h18.577
					C213.567,14.538,240.381,39.224,240.381,69.667z"/><path fill="#FFE2E2" d="M166.054,133.525l14.69-8.482c4.897-2.828,6.575-9.09,3.748-13.987l0,0
				c-2.828-4.897-9.09-6.575-13.987-3.748l-4.552,2.628V95.74c0-20.961-16.992-37.953-37.953-37.953S90.047,74.779,90.047,95.74
				v14.196l-4.552-2.628c-4.897-2.828-11.16-1.149-13.987,3.748l0,0c-2.827,4.897-1.15,11.16,3.748,13.987l14.69,8.482
				c-7.287,9.851-20.44,25.948-31.627,31.053c18.488,7.207,17.781,5.389,18.87,14.406c0.401,3.324,3.324,5.76,6.67,5.56
				c18.839-1.126,20.204-1.893,22.812,0.967c3.439,3.772,11.32,11.178,21.329,12.703c10.009-1.525,17.889-8.931,21.329-12.703
				c2.61-2.863,3.974-2.093,22.812-0.967c3.345,0.2,6.268-2.237,6.67-5.56c1.081-8.947,0.256-7.149,18.87-14.406
				C186.493,159.472,173.34,143.374,166.054,133.525z"/><path fill="#FFEFEE" d="M73.32,164.58c18.568,7.239,17.79,5.45,18.87,14.4c0.25,2.11,1.52,3.87,3.28,4.81
				c-2.88,0.18-6.64,0.45-11.61,0.75c-3.35,0.2-6.27-2.23-6.67-5.56c-1.088-9.017-0.4-7.199-18.87-14.4
				c11.19-5.11,24.34-21.2,31.63-31.06l-14.69-8.48c-4.913-2.822-6.563-9.11-3.75-13.98c2.83-4.9,9.09-6.58,13.98-3.75l2.71,1.56
				c-4.918,4.918-3.675,12.875,2.06,16.17l14.69,8.48C97.66,143.38,84.51,159.47,73.32,164.58z"/><path fill="#FFCFCF" d="M120.5 58.53c23.753-4.692 45.45 13.418 45.45 37.21v11.7c-1.61-.98-3.46-1.5-5.34-1.5-1.73 0-3.49.44-5.1 1.37l-4.56 2.63v-14.2C150.95 77.35 137.87 62.01 120.5 58.53zM197.68 164.58c-18.61 7.25-17.79 5.46-18.87 14.4-.4 3.33-3.32 5.76-6.67 5.56-4.97-.3-8.73-.57-11.61-.75 1.76-.94 3.03-2.7 3.28-4.81 1.08-8.94.26-7.15 18.87-14.4-11.19-5.11-24.34-21.21-31.63-31.06l14.69-8.48c5.722-3.293 6.997-11.233 2.06-16.17 2.793-1.607 4.587-2.93 7.81-2.93 3.54 0 6.98 1.83 8.88 5.12 2.83 4.89 1.15 11.16-3.75 13.98l-14.69 8.48C173.34 143.37 186.49 159.47 197.68 164.58z"/><path fill="#FFEFEE" d="M135.5,58.53c-17.37,3.48-30.45,18.82-30.45,37.21v14.2c-4.116-2.374-8.948-6.201-15-2.5v-11.7
				C90.05,71.956,111.738,53.837,135.5,58.53z"/><path fill="#5F266D" d="M182.922,10.542H73.077c-33.886,0-61.454,27.568-61.454,61.455v112.007
			c0,33.886,27.568,61.455,61.454,61.455h109.844c33.887,0,61.455-27.568,61.455-61.455V71.997
			C244.377,38.11,216.808,10.542,182.922,10.542z M236.377,184.003c0,29.475-23.979,53.455-53.455,53.455H73.077
			c-29.475,0-53.454-23.979-53.454-53.455V71.997c0-29.475,23.979-53.455,53.454-53.455h109.844
			c29.476,0,53.455,23.979,53.455,53.455V184.003z"/><path fill="#5F266D" d="M199.342 160.938c-7.096-3.238-16.949-12.699-27.369-26.212l10.771-6.219c6.8-3.925 9.138-12.651 5.212-19.451-3.727-6.456-11.584-8.745-18.003-5.943V95.74c0-23.133-18.82-41.953-41.953-41.953S86.047 72.607 86.047 95.74v7.373c-6.418-2.801-14.275-.514-18.003 5.943-3.926 6.799-1.588 15.525 5.211 19.452l10.771 6.218c-10.42 13.513-20.273 22.975-27.368 26.212-3.213 1.467-3.076 6.086.208 7.366l14.444 5.631c1.115.435 1.414.889 1.78 4.367.745 7.044 5.723 10.553 11.008 10.234 17.446-1.041 18.568-1.482 19.618-.331 10.591 11.616 22.235 14.37 24.887 13.962 11.066-1.686 19.588-9.472 23.683-13.962 1.042-1.145 2.098-.714 19.617.331 4.94.296 10.133-2.869 10.983-9.942.635-5.364-1.27-3.461 16.248-10.29C202.418 167.024 202.553 162.404 199.342 160.938zM174.84 178.503c-.147 1.222-1.21 2.109-2.461 2.047-19.013-1.138-21.912-2.225-26.006 2.264-2.661 2.919-9.696 9.762-18.373 11.343-8.676-1.581-15.711-8.424-18.373-11.343-4.094-4.49-7.01-3.4-26.006-2.264-5.072.269.391-10.252-9.405-14.069l-6.932-2.703c9.418-6.995 18.94-18.498 25.877-27.875 1.419-1.917.853-4.649-1.216-5.843l-14.69-8.481c-2.979-1.721-4.004-5.544-2.284-8.523 1.72-2.979 5.542-4.004 8.523-2.283l4.552 2.628c2.667 1.537 6-.392 6-3.464V95.74c0-18.722 15.231-33.953 33.953-33.953s33.953 15.231 33.953 33.953v14.196c0 3.07 3.332 5.004 6 3.464l4.552-2.628c2.986-1.722 6.799-.705 8.523 2.284 1.72 2.979.695 6.803-2.284 8.523l-14.69 8.481c-2.065 1.191-2.637 3.923-1.216 5.843 6.923 9.358 16.42 20.833 25.818 27.832C177.383 167.975 175.994 168.742 174.84 178.503zM158.5 216.5h-23c-2.209 0-4 1.791-4 4s1.791 4 4 4h23c2.209 0 4-1.791 4-4S160.709 216.5 158.5 216.5zM184 216.5h-10.5c-2.209 0-4 1.791-4 4s1.791 4 4 4H184c2.209 0 4-1.791 4-4S186.209 216.5 184 216.5z"/></svg>