<svg xmlns="http://www.w3.org/2000/svg" enable-background="new 0 0 256 256" viewBox="0 0 256 256"><circle cx="128" cy="128" r="118.218" fill="#3193F3"/><path fill="#35B1FC" d="M135.5,245.98c-2.48,0.16-4.98,0.24-7.5,0.24C62.71,246.22,9.78,193.29,9.78,128S62.71,9.78,128,9.78
						c2.52,0,5.02,0.08,7.5,0.24C73.7,13.88,24.78,65.23,24.78,128S73.7,242.12,135.5,245.98z"/><path fill="#307FED" d="M246.22,128c0,65.29-52.93,118.22-118.22,118.22c-2.52,0-5.02-0.08-7.5-0.24
						c61.8-3.86,110.72-55.21,110.72-117.98S182.3,13.88,120.5,10.02c2.48-0.16,4.98-0.24,7.5-0.24
						C193.29,9.78,246.22,62.71,246.22,128z"/><path fill="#FFE2E2" d="M174.12,67.71l-97.51,48.5c-4.19,2.08-4.42,7.98-0.4,10.38l21.6,12.89v0.01l0.004,0.003l10.781,49.43
				l27.148-26.79l24.807,14.808c3.65,2.18,8.34-0.09,8.9-4.3l13.17-98.85C183.25,69.09,178.36,65.6,174.12,67.71z"/><path fill="#FFEFEE" d="M112.81,139.48l3.77,17.3l-7.98,32.14l-10.79-49.44l-21.6-12.89c-4.02-2.4-3.79-8.3,0.4-10.38l97.51-48.5
				c3.36-1.67,7.14,0.18,8.24,3.36l-90.75,45.14c-4.19,2.08-4.42,7.98-0.4,10.38L112.81,139.48z"/><path fill="#FFCFCF" d="M182.62,73.79l-13.17,98.85c-0.56,4.21-5.25,6.48-8.9,4.3l-6.21-3.71c0.05-0.19,0.08-0.39,0.11-0.59
				l13.17-98.85c0.13-0.97,0.02-1.89-0.26-2.72l6.76-3.36C178.36,65.6,183.25,69.09,182.62,73.79z"/><path fill="#5F266D" d="M128,5.782C60.609,5.782,5.782,60.609,5.782,128c0,67.391,54.827,122.218,122.218,122.218
			c67.392,0,122.218-54.827,122.218-122.218C250.218,60.609,195.392,5.782,128,5.782z M128,242.218
			C65.02,242.218,13.782,190.98,13.782,128C13.782,65.02,65.02,13.782,128,13.782c62.979,0,114.218,51.238,114.218,114.217
			C242.218,190.98,190.979,242.218,128,242.218z"/><path fill="#5F266D" d="M103.76 39.854c3.073-.779 6.267-1.418 9.495-1.898 2.185-.325 3.693-2.36 3.368-4.545s-2.354-3.691-4.545-3.368c-3.493.52-6.954 1.211-10.286 2.057-2.141.543-3.437 2.719-2.893 4.861C99.444 39.108 101.626 40.397 103.76 39.854zM92.271 39.215c-.885-2.024-3.243-2.948-5.267-2.065C54.332 51.415 42.778 78.655 42.303 79.807c-.843 2.042.129 4.381 2.171 5.224 2.046.844 4.382-.132 5.224-2.171.104-.252 10.764-25.392 40.508-38.378C92.23 43.597 93.155 41.239 92.271 39.215zM172.339 64.128l-97.508 48.499c-7.015 3.483-7.401 13.38-.671 17.398l20.113 12.003 10.413 47.747c.663 3.043 4.464 4.221 6.718 1.995l24.945-24.617 22.149 13.222c6.116 3.653 13.977-.153 14.916-7.206l13.17-98.847C187.639 66.456 179.447 60.593 172.339 64.128zM114.019 150.512l-5.17 20.803-6.554-30.052 35.911-24.58C113.021 151.392 114.273 149.489 114.019 150.512zM115.907 176.087l4.575-18.408 8.772 5.237L115.907 176.087zM178.655 73.261l-13.17 98.851c-.183 1.368-1.699 2.101-2.886 1.393l-38.893-23.218 34.544-47.606c2.624-3.616-1.812-8.173-5.497-5.65l-55.086 37.704L78.26 123.155c-1.302-.777-1.23-2.688.131-3.364l97.511-48.5C177.265 70.611 178.86 71.728 178.655 73.261z"/></svg>