<svg xmlns="http://www.w3.org/2000/svg" enable-background="new 0 0 256 256" viewBox="0 0 256 256"><path fill="#FF4A73" d="M229.197,244.534H26.803c-8.471,0-15.337-6.867-15.337-15.337V26.803c0-8.471,6.867-15.337,15.337-15.337
				h202.393c8.471,0,15.337,6.867,15.337,15.337v202.393C244.534,237.667,237.667,244.534,229.197,244.534z"/><path fill="#F973A3" d="M26.805,11.468v233.065h0c-8.471,0-15.337-6.867-15.337-15.337V26.805
				C11.468,18.334,18.334,11.468,26.805,11.468L26.805,11.468z"/><path fill="#EA2A6A" d="M244.532,26.805v202.39c0,8.471-6.867,15.337-15.337,15.337h0V11.468h0
				C237.666,11.468,244.532,18.334,244.532,26.805z"/><path fill="#FFE2E2" d="M91.288,83.837c0,0-1.77,21.592,9.557,27.964c0,0,39.645-4.956,33.981-65.839
			c0,0,89.219,51.607,58.893,119.123c-13.873,30.887-46.315,49.48-79.727,43.997C57.721,199.848,28.603,128.204,91.288,83.837z"/><path fill="#5F266D" d="M229.196,7.466H26.804c-10.663,0-19.338,8.675-19.338,19.338v202.393c0,10.663,8.675,19.338,19.338,19.338
			h202.393c10.663,0,19.338-8.675,19.338-19.338V26.804C248.534,16.141,239.859,7.466,229.196,7.466z M240.534,229.196
			c0,6.252-5.086,11.338-11.338,11.338H26.804c-6.252,0-11.338-5.086-11.338-11.338V26.804c0-6.252,5.086-11.338,11.338-11.338
			h202.393c6.252,0,11.338,5.086,11.338,11.338V229.196z"/><path fill="#5F266D" d="M211.844 217.728h-28c-2.209 0-4 1.791-4 4s1.791 4 4 4h28c2.209 0 4-1.791 4-4S214.053 217.728 211.844 217.728zM168.844 217.728h-5.397c-2.209 0-4 1.791-4 4s1.791 4 4 4h5.397c2.209 0 4-1.791 4-4S171.053 217.728 168.844 217.728zM197.368 166.725c13.085-29.13 6.618-59.955-18.701-89.141C159.93 55.985 137.765 43.04 136.83 42.499c-2.818-1.625-6.285.613-5.985 3.833 4.688 50.408-22.594 59.737-29.149 61.242-6.362-4.946-6.819-18.382-6.421-23.41.278-3.389-3.538-5.546-6.297-3.592-29.127 20.615-41.995 49.08-35.304 78.096 7.229 31.353 37.049 55.361 71.916 55.361C155.899 214.028 184.315 195.787 197.368 166.725zM125.592 206.029c-31.071-.008-57.698-21.296-64.123-49.159-5.437-23.574 3.975-46.928 25.914-65.021 1.446 17.818 10.36 24.387 13.959 23.921.459-.057 11.345-1.515 21.391-11.174 8.271-7.952 17.456-23.12 16.581-50.997 7.865 5.356 21.541 15.622 33.437 29.373 23.354 26.995 29.181 54.071 17.321 80.476C178.321 189.606 152.796 206.031 125.592 206.029z"/></svg>