<svg xmlns="http://www.w3.org/2000/svg" enable-background="new 0 0 256 256" viewBox="0 0 256 256"><path fill="#FFE2E2" d="M132.826,11.103c-61.3,0-110.994,49.694-110.994,110.994c0,21.608,6.181,41.77,16.862,58.826
				L12.18,244.897l64.808-26.86c16.403,9.567,35.478,15.054,55.837,15.054c61.3,0,110.994-49.694,110.994-110.994
				C243.82,60.797,194.126,11.103,132.826,11.103z"/><path fill="#44C7B6" d="M132.826,212.091c-15.931,0-31.58-4.216-45.257-12.194l-8.998-5.248l-27.569,11.426l11.239-27.119
				c-6.778-10.824-19.41-28.144-19.41-56.859c0-49.623,40.371-89.994,89.994-89.994s89.994,40.371,89.994,89.994
				S182.449,212.091,132.826,212.091z"/><path fill="#4BDBC3" d="M57.83,122.1c0,28.235,12.135,45.245,19.41,56.86l-8.13,19.61L51,206.08l11.24-27.12
				c-6.732-10.747-19.41-28.118-19.41-56.86c0-49.63,40.37-90,90-90c2.53,0,5.03,0.1,7.5,0.31C94.19,36.24,57.83,75,57.83,122.1z"/><path fill="#3BB2A0" d="M222.82,122.1c0,49.62-40.37,89.99-89.99,89.99c-2.51,0-5.01-0.1-7.49-0.31
				c46.12-3.83,82.48-42.59,82.48-89.68c0-47.1-36.36-85.86-82.49-89.69c2.47-0.21,4.97-0.31,7.5-0.31
				C182.45,32.1,222.82,72.47,222.82,122.1z"/><path fill="#FFE2E2" d="M150.138,185.864c8.272,3.131,18.102,1.512,26.309-2.222c5.182-2.358,6.474-9.136,2.533-13.244
				l-16.565-17.27c-2.296-2.394-5.733-3.278-8.916-2.347c-2.555,0.747-5.112,1.037-7.644,0.863
				c-7.698-0.529-21.022-7.266-26.795-17.384c-3.25-5.696-10.088-13.883-7.183-31.815c0.755-4.659,3.027-8.816,6.64-12.207
				c2.109-1.98,2.968-4.958,2.396-7.794l-4.996-24.786c-1.117-5.541-7.432-8.303-12.223-5.303c-4.643,2.907-9.45,7.183-12.96,11.589
				c-2.957,3.712-4.759,8.203-5.213,12.989C85.523,76.931,70.33,155.654,150.138,185.864z"/><path fill="#5F266D" d="M165.307,150.353c-3.326-3.467-8.279-4.776-12.925-3.417c-2.096,0.613-4.199,0.854-6.247,0.711
			c-6.442-0.442-18.534-6.506-23.595-15.376c-0.396-0.694-0.842-1.424-1.318-2.2c-3.259-5.319-7.722-12.604-5.391-26.993
			c0.614-3.783,2.44-7.125,5.43-9.932c3.059-2.873,4.43-7.279,3.579-11.5l-4.996-24.786c-1.668-8.275-11.115-12.382-18.267-7.903
			c-5.094,3.189-10.185,7.74-13.966,12.487c-3.404,4.272-5.493,9.428-6.049,14.92c-0.413,2.277-3.604,21.634,2.476,44.718
			c5.876,22.311,21.869,52.309,64.688,68.518c9.318,3.527,20.283,1.818,29.382-2.322c7.675-3.492,9.611-13.558,3.763-19.654
			L165.307,150.353z M174.795,179.996c-14.028,6.383-23.236,2.122-23.236,2.122c-31.708-12.002-51.795-33.123-59.705-62.775
			c-5.961-22.348-2.435-41.474-2.399-41.66c0.191-1,0.32-6.116,4.414-11.255c3.192-4.006,7.661-8.003,11.954-10.691
			c2.415-1.511,5.611-0.115,6.179,2.704l4.996,24.786c0.308,1.529-0.157,3.095-1.213,4.087c-4.246,3.987-6.96,8.995-7.85,14.484
			c-2.806,17.317,2.774,26.425,6.466,32.452c0.43,0.701,0.833,1.359,1.191,1.985c6.156,10.791,20.479,18.739,29.995,19.393
			c2.994,0.207,6.035-0.136,9.041-1.015c1.772-0.518,3.653-0.029,4.906,1.277l16.564,17.271
			C178.134,175.284,177.471,178.778,174.795,179.996z"/><path fill="#5F266D" d="M132.83,7.098c-63.408,0-114.994,51.586-114.994,114.994c0,20.926,5.66,41.341,16.387,59.179
			l-25.733,62.09c-1.358,3.275,1.934,6.592,5.227,5.227l62.996-26.108c76.18,42.655,171.113-12.552,171.113-100.387
			C247.824,58.684,196.238,7.098,132.83,7.098z M79.008,214.577c-1.08-0.631-2.393-0.719-3.546-0.24l-55.882,23.16l22.815-55.048
			c0.496-1.196,0.382-2.558-0.305-3.655c-10.633-16.978-16.253-36.585-16.253-56.703c0-58.997,47.998-106.994,106.994-106.994
			s106.994,47.998,106.994,106.994C239.824,204.61,149.905,255.928,79.008,214.577z"/><path fill="#5F266D" d="M132.83,28.098c-51.829,0-93.994,42.166-93.994,93.994c0,29.219,12.579,47.101,18.924,57.234
			l-10.449,25.213c-1.36,3.281,1.936,6.589,5.227,5.227l25.736-10.666c9.178,5.353,26.684,16.987,54.556,16.987
			c51.829,0,93.994-42.166,93.994-93.994S184.659,28.098,132.83,28.098z M132.83,208.086c-25.668,0-41.334-10.536-52.24-16.897
			c-1.052-0.615-2.363-0.73-3.546-0.24l-18.643,7.727l7.54-18.193c0.496-1.196,0.382-2.557-0.305-3.654
			c-6.735-10.754-18.8-27.272-18.8-54.736c0-47.417,38.577-85.994,85.994-85.994s85.994,38.577,85.994,85.994
			S180.248,208.086,132.83,208.086z"/><path fill="#5F266D" d="M202.644 126.815c-2.186-.346-4.229 1.151-4.57 3.333-.577 3.685-1.525 7.314-2.818 10.785-.771 2.07.282 4.374 2.353 5.145 2.066.77 4.372-.279 5.145-2.353 1.479-3.973 2.564-8.125 3.224-12.339C206.319 129.202 204.827 127.156 202.644 126.815zM202.877 119.8c2.202-.17 3.85-2.094 3.68-4.297-1.819-23.523-14.427-41.417-14.963-42.167-1.283-1.796-3.776-2.212-5.575-.931-1.797 1.281-2.217 3.778-.938 5.577.119.167 11.858 16.904 13.5 38.138C198.748 118.295 200.639 119.967 202.877 119.8z"/></svg>