<svg xmlns="http://www.w3.org/2000/svg" enable-background="new 0 0 36 36" viewBox="0 0 36 36"><path fill="#efefef" d="m1.003 14.311c3.253 6.104 2.324 11.981 3.891 14.923s6.551 8.218 20.083 1.008 11.09-16.579 9.365-19.815c-8.072-15.151-39.1-6.927-33.339 3.884z"/><path fill="#a4afc1" d="m27.456 2.984h2v1h-2z" transform="rotate(-88.321 28.455 3.484)"/><path fill="#a4afc1" d="m30.624 5.314h1v2h-1z" transform="rotate(-88.321 31.124 6.313)"/><path fill="#a4afc1" d="m6.809 30.75c-.827 0-1.5-.673-1.5-1.5s.673-1.5 1.5-1.5 1.5.673 1.5 1.5-.673 1.5-1.5 1.5zm0-2c-.275 0-.5.224-.5.5s.225.5.5.5.5-.224.5-.5-.225-.5-.5-.5z"/><path fill="#f3f3f1" d="m28.25 29.25v-20.543c0-1.081-.874-1.957-1.952-1.957h-16.596c-1.078 0-1.952.876-1.952 1.957v14.673c0 1.081.874 1.957 1.952 1.957h13.728z"/><path fill="#2fdf84" d="m16.048 11.646s-2.542-.239-4.286 2.543c-1.132 1.806-1.251 4.836-.923 5.567s1.115 1.55 3.711 1.767l.798-.98-1.953-1.432s1.464 1.357 4.605 1.357c3.14 0 4.604-1.357 4.604-1.357l-1.953 1.432.798.98c2.596-.217 3.383-1.036 3.711-1.767s.209-3.761-.923-5.567c-1.744-2.782-4.286-2.543-4.286-2.543z"/><path fill="#d5dbe1" d="M10 23.38v-14.673c0-1.081.874-1.957 1.952-1.957h-2.25c-1.078 0-1.952.876-1.952 1.957v14.673c0 1.081.874 1.957 1.952 1.957h2.25c-1.078 0-1.952-.876-1.952-1.957zM25.68 25.337h-2.25l4.82 3.913v-1.827z"/><path fill="#00b871" d="M19.953 11.646h.313c-.195-.009-.313 0-.313 0zM13.088 19.757c-.328-.731-.209-3.761.923-5.567 1.376-2.195 3.244-2.508 3.973-2.543h-1.937s-2.542-.239-4.286 2.543c-1.132 1.806-1.251 4.836-.923 5.567s1.115 1.55 3.711 1.767l.301-.37c-1.082-.362-1.537-.898-1.762-1.397zM15.996 19.368l1.461 1.071c.181.01.349.029.543.029.403 0 .777-.023 1.125-.062-1.616-.181-2.638-.715-3.129-1.038zM22.902 20.543l1.602-1.175c-.546.359-1.767.967-3.711 1.071l-.141.103.798.98c.822-.069 1.447-.202 1.949-.37z"/><path d="m28.25 30c-.169 0-.336-.057-.473-.167l-4.613-3.746h-13.462c-1.49 0-2.702-1.214-2.702-2.707v-14.673c0-1.493 1.212-2.707 2.702-2.707h16.596c1.49 0 2.702 1.214 2.702 2.707v20.543c0 .289-.166.553-.428.677-.102.049-.213.073-.322.073zm-18.548-22.5c-.663 0-1.202.541-1.202 1.207v14.673c0 .666.539 1.207 1.202 1.207h13.728c.172 0 .339.059.473.167l3.598 2.921v-18.968c0-.666-.539-1.207-1.202-1.207z"/><path d="m21.45 22.273c-.225 0-.438-.101-.582-.277l-.798-.98c-1.197.246-2.943.246-4.141 0l-.798.98c-.156.192-.398.292-.645.274-2.369-.198-3.746-.9-4.333-2.208-.477-1.06-.227-4.361.972-6.272 1.859-2.966 4.557-2.921 4.948-2.895h3.879c.053-.009 2.953-.244 4.922 2.895 1.196 1.911 1.448 5.212.972 6.272-.587 1.308-1.965 2.009-4.334 2.208-.02.002-.041.003-.062.003zm.281-1.592.046.056c2.241-.264 2.584-1.027 2.7-1.288.209-.479.139-3.245-.874-4.862-1.459-2.328-3.494-2.195-3.587-2.194l-3.969.003c-.021 0-.043-.001-.064-.003-.103-.005-2.129-.13-3.586 2.194-1.014 1.616-1.084 4.382-.875 4.86.117.261.46 1.025 2.7 1.289l.046-.056-.929-.68c-.283-.185-.434-.32-.453-.338-.292-.27-.321-.721-.068-1.028.252-.307.703-.362 1.021-.127l.399.293c.544.339 1.767.919 3.762.919 1.998 0 3.221-.581 3.766-.922l.396-.29c.319-.233.769-.179 1.021.127s.224.757-.068 1.027c-.02.019-.17.155-.454.34z"/><path d="M15.56 18.261c-.952 0-1.727-.775-1.727-1.728s.774-1.729 1.727-1.729 1.727.775 1.727 1.729c-.001.952-.775 1.728-1.727 1.728zm0-1.957c-.125 0-.227.103-.227.229 0 .251.453.251.453 0 0-.126-.101-.229-.226-.229zM20.44 18.261c-.952 0-1.727-.775-1.727-1.728s.774-1.729 1.727-1.729 1.727.775 1.727 1.729c0 .952-.774 1.728-1.727 1.728zm0-1.957c-.125 0-.227.103-.227.229 0 .251.453.251.453 0 .001-.126-.101-.229-.226-.229z"/></svg>