<svg xmlns="http://www.w3.org/2000/svg" enable-background="new 0 0 36 36" viewBox="0 0 36 36"><path fill="#efefef" d="m8.114 5.564c-1.805 6.677-6.504 10.327-7.374 13.545s-.847 10.475 13.955 14.477 19.432-4.501 20.388-8.041c4.481-16.572-23.772-31.807-26.969-19.981z"/><g fill="#a4afc1"><path d="m7.033 3.555h2v1h-2z" transform="rotate(-45.001 8.033 4.056)"/><path d="m2.967 7.621h2v1h-2z" transform="rotate(-45.001 3.967 8.121)"/><path d="m3.467 2.878h1v2h-1z" transform="rotate(-45.001 3.967 3.879)"/><path d="m32 31.5c-.827 0-1.5-.673-1.5-1.5s.673-1.5 1.5-1.5 1.5.673 1.5 1.5-.673 1.5-1.5 1.5zm0-2c-.276 0-.5.224-.5.5s.224.5.5.5.5-.224.5-.5-.224-.5-.5-.5z"/></g><path fill="#f3f3f1" d="m27.293 6.75h-18.586c-1.077 0-1.957.88-1.957 1.957v18.587c0 1.076.88 1.957 1.957 1.957h8.793v-7h-3v-4h3v-2.817c0-2.851 2.332-5.183 5.183-5.183h2.817v4h-2c-.55 0-1 .45-1 1v3h4l-1 4h-3v7h4.793c1.076 0 1.957-.88 1.957-1.957v-18.587c0-1.077-.88-1.957-1.957-1.957z"/><path fill="#2fdf84" d="m22.5 29.25v-7h3l1-4h-4v-3c0-.55.45-1 1-1h2v-4h-2.817c-2.851 0-5.183 2.332-5.183 5.183v2.817h-3v4h3v7z"/><path fill="#d5dbe1" d="M28.75 18.25h-2.25l-1 4h2.25zM24.75 15.25c0-.55.45-1 1-1h2v-4h-2.25v4h-2c-.55 0-1 .45-1 1v3h2.25zM22.5 22.25h2.25v7h-2.25zM9 27.293v-18.586c0-1.077.88-1.957 1.957-1.957h-2.25c-1.077 0-1.957.88-1.957 1.957v18.587c0 1.076.88 1.957 1.957 1.957h2.25c-1.077-.001-1.957-.881-1.957-1.958z"/><path fill="#00b871" d="M17.5 22.25h2.5v7h-2.5zM20 15.433c0-2.851 2.332-5.183 5.183-5.183h-2.5c-2.851 0-5.183 2.332-5.183 5.183v2.817h2.5zM14.5 18.25h2.5v4h-2.5z"/><path d="m27.293 30h-4.891v-1.5h4.891c.666 0 1.207-.541 1.207-1.207v-18.586c0-.666-.541-1.207-1.207-1.207h-18.586c-.666 0-1.207.541-1.207 1.207v18.587c0 .666.541 1.207 1.207 1.207h8.804v1.499h-8.804c-1.493 0-2.707-1.214-2.707-2.707v-18.586c0-1.493 1.214-2.707 2.707-2.707h18.587c1.492 0 2.706 1.214 2.706 2.707v18.587c0 1.492-1.214 2.706-2.707 2.706z"/><path d="m23.25 29.25h-1.5v-7c0-.414.336-.75.75-.75h2.415l.625-2.5h-3.04c-.414 0-.75-.336-.75-.75v-3c0-.965.785-1.75 1.75-1.75h1.25v-2.5h-2.067c-2.444 0-4.433 1.989-4.433 4.433v2.817c0 .414-.336.75-.75.75h-2.25v2.5h2.25c.414 0 .75.336.75.75v7h-1.5v-6.25h-2.25c-.414 0-.75-.336-.75-.75v-4c0-.414.336-.75.75-.75h2.25v-2.067c0-3.271 2.662-5.933 5.933-5.933h2.817c.414 0 .75.336.75.75v4c0 .414-.336.75-.75.75h-2c-.136 0-.25.114-.25.25v2.25h3.25c.231 0 .449.106.591.289s.192.419.136.644l-1 4c-.083.333-.383.567-.727.567h-2.25z"/></svg>