<svg xmlns="http://www.w3.org/2000/svg" enable-background="new 0 0 36 36" viewBox="0 0 36 36"><path fill="#efefef" d="m1.003 14.311c3.253 6.104 2.324 11.981 3.891 14.923s6.551 8.218 20.083 1.008 11.09-16.579 9.365-19.815c-8.072-15.151-39.1-6.927-33.339 3.884z"/><g fill="#a4afc1"><path d="m7.033 6.315h2v1h-2z" transform="rotate(-45.001 8.033 6.816)"/><path d="m2.967 10.381h2v1h-2z" transform="rotate(-45.001 3.967 10.881)"/><path d="m3.467 5.639h1v2h-1z" transform="rotate(-45.001 3.967 6.639)"/><path d="m31 9.044c-.827 0-1.5-.673-1.5-1.5s.673-1.5 1.5-1.5 1.5.673 1.5 1.5-.673 1.5-1.5 1.5zm0-2c-.275 0-.5.224-.5.5s.225.5.5.5.5-.224.5-.5-.225-.5-.5-.5z"/></g><path fill="#f3f3f1" d="m29.115 13.628c-.573-2.78-3.096-4.868-6.115-4.868-2.004-.01-3.843.917-5.01 2.441-1.167-1.524-3.016-2.451-5-2.451-3.44 0-6.24 2.72-6.24 6.067 0 .011.003.023.003.034 0 .009-.003.017-.003.026 0 5.499 7.531 12.373 11.25 12.373 3.709 0 11.25-6.874 11.25-12.373 0-.429-.048-.846-.135-1.249z"/><path fill="#d5dbe1" d="M20.24 11.201c.946-1.236 2.337-2.068 3.896-2.338-.369-.066-.748-.103-1.136-.103-1.446-.007-2.802.479-3.886 1.32.419.324.801.696 1.126 1.121zM9 14.877c0-.009.003-.017.003-.026 0-.011-.003-.023-.003-.034 0-2.966 2.199-5.435 5.093-5.96-.361-.064-.729-.107-1.103-.107-3.44 0-6.24 2.72-6.24 6.067 0 .011.003.023.003.034 0 .009-.003.017-.003.026 0 5.499 7.531 12.373 11.25 12.373.342 0 .725-.076 1.124-.187-3.927-1.088-10.124-7.194-10.124-12.186z"/><path d="m18 28c-4.068 0-12-7.084-12-13.123 0-.02.001-.042.003-.065.018-3.775 3.145-6.812 6.986-6.812 1.882 0 3.693.759 5 2.066 1.304-1.301 3.105-2.056 4.979-2.056h.036c3.311 0 6.19 2.297 6.845 5.463.1.466.151.938.151 1.404 0 6.039-7.932 13.123-12 13.123zm-10.501-13.123c.001 5.111 7.118 11.623 10.501 11.623 1.574 0 4.238-1.603 6.479-3.898 2.518-2.579 4.021-5.466 4.021-7.725 0-.361-.04-.728-.118-1.091 0-.002-.001-.004-.001-.007-.51-2.473-2.774-4.269-5.381-4.269-.01 0-.019 0-.028 0-1.719 0-3.355.801-4.387 2.146-.143.186-.362.294-.596.294-.233 0-.453-.109-.596-.294-1.034-1.35-2.68-2.156-4.404-2.156-3.026 0-5.489 2.385-5.489 5.317 0 .015 0 .037-.001.06z"/></svg>