<svg xmlns="http://www.w3.org/2000/svg" enable-background="new 0 0 36 36" viewBox="0 0 36 36"><path fill="#efefef" d="m13.411 34.999c6.298-2.859 12.105-1.559 15.14-2.936 3.035-1.378 8.617-6.016 2.28-19.978s-15.841-12.12-19.18-10.605c-15.632 7.095-9.395 38.582 1.76 33.519z"/><g fill="#a4afc1"><path d="m3.555 26.217h1v2h-1z" transform="rotate(-45.001 4.055 27.217)"/><path d="m7.621 30.283h1v2h-1z" transform="rotate(-45.001 8.121 31.283)"/><path d="m2.878 30.783h2v1h-2z" transform="rotate(-45.001 3.878 31.283)"/><path d="m30.5 7.25c-.827 0-1.5-.673-1.5-1.5s.673-1.5 1.5-1.5 1.5.673 1.5 1.5-.673 1.5-1.5 1.5zm0-2c-.276 0-.5.224-.5.5s.224.5.5.5.5-.224.5-.5-.224-.5-.5-.5z"/></g><path fill="#f3f3f1" d="m25.25 6.75h-14.5c-2.209 0-4 1.791-4 4v14.5c0 2.209 1.791 4 4 4h14.5c2.209 0 4-1.791 4-4v-14.5c0-2.209-1.791-4-4-4zm-7.25 16.63c-2.972 0-5.38-2.409-5.38-5.38s2.409-5.38 5.38-5.38 5.38 2.409 5.38 5.38-2.408 5.38-5.38 5.38zm6.359-10.76c-.54 0-.978-.438-.978-.978s.438-.978.978-.978.978.438.978.978-.438.978-.978.978z"/><circle cx="18" cy="18" r="5.38" fill="#2fdf84"/><circle cx="24.359" cy="11.641" r=".978" fill="#2fdf84"/><circle cx="24.359" cy="11.641" r=".978" fill="#00b871"/><path fill="#d5dbe1" d="m9 25.25v-14.5c0-2.209 1.791-4 4-4h-2.25c-2.209 0-4 1.791-4 4v14.5c0 2.209 1.791 4 4 4h2.25c-2.209 0-4-1.791-4-4z"/><path fill="#00b871" d="m14.87 18c0-2.585 1.825-4.741 4.255-5.258-.363-.078-.739-.122-1.125-.122-2.972 0-5.38 2.409-5.38 5.38s2.409 5.38 5.38 5.38c.386 0 .762-.045 1.125-.122-2.431-.517-4.255-2.673-4.255-5.258z"/><path d="m25.25 30h-14.5c-2.619 0-4.75-2.131-4.75-4.75v-14.5c0-2.619 2.131-4.75 4.75-4.75h14.5c2.619 0 4.75 2.131 4.75 4.75v14.5c0 2.619-2.131 4.75-4.75 4.75zm-14.5-22.5c-1.792 0-3.25 1.458-3.25 3.25v14.5c0 1.792 1.458 3.25 3.25 3.25h14.5c1.792 0 3.25-1.458 3.25-3.25v-14.5c0-1.792-1.458-3.25-3.25-3.25z"/><path d="M18 24.13c-3.38 0-6.13-2.75-6.13-6.13s2.75-6.13 6.13-6.13 6.13 2.75 6.13 6.13-2.75 6.13-6.13 6.13zm0-10.76c-2.553 0-4.63 2.077-4.63 4.63s2.077 4.63 4.63 4.63 4.63-2.077 4.63-4.63-2.077-4.63-4.63-4.63zM24.359 13.37c-.953 0-1.729-.775-1.729-1.729 0-.953.775-1.728 1.729-1.728.953 0 1.728.775 1.728 1.728s-.775 1.729-1.728 1.729zm0-1.957c-.126 0-.229.103-.229.228-.001.251.457.252.457 0 0-.125-.103-.228-.228-.228z"/></svg>