<svg xmlns="http://www.w3.org/2000/svg" enable-background="new 0 0 36 36" viewBox="0 0 36 36"><path fill="#efefef" d="m13.411 34.999c6.298-2.859 12.105-1.559 15.14-2.936 3.035-1.378 8.617-6.016 2.28-19.978s-15.841-12.12-19.18-10.605c-15.632 7.095-9.395 38.582 1.76 33.519z"/><g fill="#a4afc1"><path d="m14.783 3.555h2v1h-2z" transform="rotate(-45.001 15.783 4.056)"/><path d="m10.717 7.621h2v1h-2z" transform="rotate(-45.001 11.717 8.122)"/><path d="m11.217 2.879h1v2h-1z" transform="rotate(-44.992 11.716 3.879)"/><path d="m25.626 12.283c-.827 0-1.5-.673-1.5-1.5s.673-1.5 1.5-1.5 1.5.673 1.5 1.5-.673 1.5-1.5 1.5zm0-2c-.275 0-.5.224-.5.5s.225.5.5.5.5-.224.5-.5-.225-.5-.5-.5z"/></g><path fill="#2fdf84" d="m12.375 27.054v-9.75c0-.122.031-.24.093-.345l.202-.351h-5.217c-.388 0-.703.312-.703.696v9.75c0 .384.315.696.703.696h5.266v-.112c-.202-.122-.344-.333-.344-.584z"/><path fill="#f3f3f1" d="m26.437 15.214h-5.625v-4.179c0-1.537-1.262-2.786-2.812-2.786h-2.109c-.388 0-.703.312-.703.696v3.296l-2.72 4.715c-.062.106-.093.224-.093.345v9.75c0 .384.315.696.703.696h11.286c1.111 0 2.121-.651 2.569-1.655l2.256-5.027c.041-.089.062-.185.062-.282v-2.783c-.001-1.536-1.263-2.786-2.814-2.786z"/><path fill="#00b871" d="m9 27.054v-9.75c0-.384.315-.696.703-.696h-2.25c-.388 0-.703.312-.703.696v9.75c0 .384.315.696.703.696h2.25c-.388 0-.703-.312-.703-.696z"/><path fill="#d5dbe1" d="m14.625 27.054v-9.75c0-.122.031-.24.093-.345l2.72-4.715v-3.298c0-.368.291-.662.656-.687-.032-.001-.062-.009-.094-.009h-2.109c-.388 0-.703.312-.703.696v3.296l-2.72 4.715c-.062.106-.093.224-.093.345v9.75c0 .384.315.696.703.696h2.25c-.388.002-.703-.31-.703-.694z"/><path d="m24.364 28.5h-11.286c-.801 0-1.453-.649-1.453-1.446v-9.75c0-.254.067-.503.194-.722l2.618-4.54v-3.096c0-.797.652-1.446 1.453-1.446h2.11c1.965 0 3.562 1.586 3.562 3.536v3.429h4.875c1.965-.001 3.563 1.585 3.563 3.535v2.786c0 .207-.043.406-.129.592l-2.254 5.024c-.569 1.274-1.846 2.098-3.253 2.098zm-8.473-19.5.047 3.243c0 .131-.034.261-.101.375l-2.72 4.715.008 9.721 11.239-.054c.815 0 1.555-.475 1.884-1.21l2.252-5.02v-2.77c0-1.123-.925-2.036-2.062-2.036h-5.625c-.414 0-.75-.336-.75-.75v-4.179c-.001-1.122-.925-2.035-2.063-2.035z"/><path d="m12.719 28.5h-5.266c-.801 0-1.453-.649-1.453-1.446v-9.75c0-.798.652-1.447 1.453-1.447h5.266v1.5h-5.266l.047 9.697 5.219-.054z"/></svg>