<svg xmlns="http://www.w3.org/2000/svg" enable-background="new 0 0 36 36" viewBox="0 0 36 36"><path fill="#efefef" d="m8.377 4.167c6.917 0 11.667-3.583 15-3.583s10.333 1.916 10.333 17.249-9.417 17.583-13.083 17.583c-17.167.001-24.5-31.249-12.25-31.249z"/><g fill="#a4afc1"><path d="m10.033 4.305h2v1h-2z" transform="rotate(-45.001 11.033 4.806)"/><path d="m5.967 8.371h2v1h-2z" transform="rotate(-45.001 6.967 8.872)"/><path d="m6.467 3.629h1v2h-1z" transform="rotate(-44.992 6.967 4.629)"/><path d="m19.636 29.343c-.827 0-1.5-.673-1.5-1.5s.673-1.5 1.5-1.5 1.5.673 1.5 1.5-.673 1.5-1.5 1.5zm0-2c-.275 0-.5.224-.5.5s.225.5.5.5.5-.224.5-.5-.225-.5-.5-.5z"/></g><path fill="#f3f3f1" d="m18.301 6.75c-6.073.001-9.301 3.953-9.301 8.261 0 1.998 1.099 4.491 2.86 5.281.267.122.413.07.472-.182.053-.191.284-1.113.396-1.547.034-.14.017-.261-.094-.391-.584-.686-1.048-1.937-1.048-3.11 0-3.005 2.352-5.923 6.356-5.923 3.462 0 5.883 2.284 5.883 5.55 0 3.692-1.923 6.246-4.423 6.246-1.383 0-2.413-1.103-2.087-2.467.395-1.625 1.169-3.371 1.169-4.542 0-1.05-.584-1.92-1.778-1.92-1.409 0-2.551 1.416-2.551 3.317 0 1.208.421 2.024.421 2.024s-1.393 5.715-1.652 6.783c-.438 1.808.059 4.734.102 4.986.027.139.18.183.266.068.138-.183 1.821-2.622 2.293-4.386.172-.642.876-3.249.876-3.249.464.851 1.803 1.564 3.229 1.564 4.243 0 7.309-3.788 7.309-8.487-.015-4.505-3.812-7.876-8.698-7.876z"/><path fill="#d5dbe1" d="M18.712 21.551s-.171.631-.364 1.348c.421.133.876.215 1.343.215.424 0 .833-.048 1.232-.121-1.01-.237-1.86-.799-2.211-1.442zM11.25 15.011c0-4.015 2.806-7.716 8.102-8.203-.344-.035-.694-.058-1.051-.058v.001c-6.073 0-9.301 3.952-9.301 8.26 0 1.998 1.099 4.491 2.86 5.281.267.122.413.07.472-.182.038-.137.167-.647.278-1.085-.857-1.122-1.36-2.674-1.36-4.014zM26.075 14.69c0-3.266-2.422-5.55-5.883-5.55-.401 0-.78.037-1.148.092 2.86.435 4.781 2.552 4.781 5.458 0 3.053-1.317 5.323-3.186 6.019.301.142.643.227 1.013.227 2.5-.001 4.423-2.554 4.423-6.246z"/><path fill="#d5dbe1" d="m15.174 24.131c.259-1.068 1.652-6.783 1.652-6.783s-.421-.816-.421-2.024c0-1.345.577-2.435 1.411-2.965-.281-.22-.649-.352-1.11-.352-1.409 0-2.551 1.416-2.551 3.317 0 1.208.421 2.024.421 2.024s-.024.1-.066.269c.116.207.24.399.373.556.111.13.128.251.094.391-.112.434-.343 1.356-.396 1.547-.059.252-.205.304-.472.182-.077-.035-.145-.089-.22-.13-.392 1.609-.831 3.414-.966 3.968-.438 1.807.059 4.734.102 4.986.027.139.18.183.266.068.101-.134 1.031-1.483 1.708-2.888-.016-.751.021-1.528.175-2.166z"/><path d="m13.171 30c-.066 0-.133-.007-.198-.022-.347-.081-.614-.364-.682-.721-.099-.562-.555-3.407-.095-5.303.226-.935 1.321-5.432 1.591-6.538-.15-.382-.382-1.126-.382-2.092 0-2.28 1.45-4.067 3.301-4.067 1.512 0 2.527 1.073 2.527 2.67 0 .859-.328 1.886-.675 2.973-.185.576-.374 1.168-.515 1.746-.093.388-.023.745.202 1.03.256.324.677.51 1.156.51 2.128 0 3.673-2.311 3.673-5.496 0-2.871-2.063-4.8-5.134-4.8-3.641 0-5.605 2.666-5.605 5.173 0 1.053.438 2.117.869 2.624.259.305.346.669.251 1.055l-.149.589c-.105.414-.217.854-.252.979-.094.402-.344.604-.534.698-.289.142-.616.129-.972-.033-2.142-.962-3.299-3.791-3.299-5.964 0-4.34 3.146-9.01 10.051-9.01v-.001c5.37 0 9.433 3.708 9.449 8.625 0 5.269-3.465 9.24-8.059 9.24-1.034 0-2.068-.329-2.846-.857l-.535 1.986c-.532 1.989-2.4 4.619-2.419 4.644-.172.23-.442.362-.719.362zm3.535-17.243c-1.01 0-1.801 1.127-1.801 2.567 0 .993.336 1.678.34 1.685.079.159.102.345.06.517 0 0-1.394 5.713-1.65 6.781-.204.838-.184 2.033-.093 3.081.501-.842 1.069-1.919 1.3-2.782l.877-3.25c.079-.295.331-.513.636-.549.303-.04.599.116.746.385.309.564 1.379 1.173 2.571 1.173 3.739 0 6.559-3.326 6.559-7.737-.015-4.063-3.433-7.128-7.95-7.128-5.875.001-8.551 3.894-8.551 7.511 0 1.525.753 3.497 1.999 4.359.033-.131.068-.271.104-.409l.108-.428c-.677-.871-1.125-2.242-1.125-3.471 0-3.235 2.49-6.673 7.105-6.673 3.906 0 6.634 2.591 6.634 6.3 0 4.054-2.176 6.996-5.173 6.996-.941 0-1.792-.394-2.334-1.081-.512-.649-.684-1.47-.482-2.311.151-.623.351-1.247.544-1.851.311-.972.604-1.891.604-2.517-.001-.435-.134-1.168-1.028-1.168zm-5.102 7.176c-.001.002-.001.003-.002.005.001-.001.001-.003.002-.005z"/></svg>