<svg xmlns="http://www.w3.org/2000/svg" enable-background="new 0 0 36 36" viewBox="0 0 36 36"><path fill="#efefef" d="m26.982 3.914c-6.916.129-11.732-3.365-15.065-3.302s-10.296 2.109-10.009 17.44 9.744 17.404 13.41 17.336c17.164-.321 23.911-31.703 11.664-31.474z"/><path fill="#a4afc1" d="M28.25 12.335c-.827 0-1.5-.673-1.5-1.5s.673-1.5 1.5-1.5 1.5.673 1.5 1.5-.673 1.5-1.5 1.5zm0-2c-.275 0-.5.224-.5.5s.225.5.5.5.5-.224.5-.5-.225-.5-.5-.5zM5.688 26.3h1v2h-1zM5.688 32.05h1v2h-1zM2.188 29.55h2v1h-2zM7.938 29.55h2v1h-2z"/><path fill="#f3f3f1" d="m25.365 26.602h.025c.287 0 .498-.157.577-.429.053-.181.092-.349.129-.521.032-.148.085-.386.133-.479.966-.151 1.706-.342 2.201-.57.404-.186.653-.398.761-.647.032-.075.052-.151.056-.231.016-.265-.174-.501-.441-.543v-.001c-3.008-.493-4.363-3.56-4.419-3.69-.005-.008-.007-.017-.013-.025-.154-.311-.19-.567-.106-.762.165-.384.795-.582 1.211-.714.121-.037.234-.074.329-.11.411-.161.703-.336.897-.534.231-.236.276-.463.273-.61-.007-.358-.283-.678-.723-.833-.147-.06-.318-.092-.489-.092-.116 0-.291.015-.456.092-.352.164-.667.254-.938.266-.143-.007-.245-.037-.31-.067.008-.14.017-.285.027-.432l.005-.064c.098-1.516.217-3.402-.287-4.522-.344-.767-.807-1.426-1.376-1.961-.477-.448-1.031-.812-1.646-1.081-1.071-.47-2.069-.54-2.57-.54h-.002c-.02 0-.037 0-.054 0-.14.002-.366.005-.387.005-.499 0-1.499.07-2.572.54-.614.269-1.165.631-1.641 1.08-.566.535-1.028 1.193-1.372 1.957-.503 1.118-.384 3.004-.289 4.519v.003c.009.162.021.331.031.497-.073.032-.192.069-.368.069-.284 0-.622-.09-1.003-.268-.113-.052-.24-.078-.381-.078-.227 0-.467.065-.674.188-.262.152-.43.367-.476.606-.027.154-.026.465.323.782.192.174.474.334.838.477.096.037.21.073.329.11.416.132 1.048.33 1.212.714.082.194.047.451-.107.762-.005.008-.008.017-.011.025-.039.09-.398.895-1.133 1.744-.418.483-.878.888-1.367 1.201-.598.384-1.243.633-1.919.744-.265.043-.456.279-.441.546.005.077.023.154.054.228v.002c.108.25.357.462.762.648.495.229 1.235.42 2.201.57.05.092.1.323.135.482.037.168.074.342.129.525.059.199.211.437.604.437.149 0 .319-.034.518-.071.29-.056.686-.133 1.179-.133.275 0 .559.023.844.071.551.091 1.027.425 1.577.811.804.566 1.716 1.206 3.108 1.206.038 0 .076-.002.114-.005.045.003.103.005.161.005 1.392 0 2.304-.64 3.108-1.204l.001-.002c.55-.385 1.025-.719 1.576-.809.286-.048.57-.071.844-.071.473 0 .847.06 1.18.125.219.041.388.062.519.062z"/><path fill="#d5dbe1" d="M12.283 26.18c-.055-.184-.093-.357-.129-.525-.035-.159-.085-.389-.135-.482-.967-.15-1.706-.342-2.201-.57-.405-.186-.654-.398-.762-.648v-.002c-.032-.074-.05-.151-.054-.228-.015-.267.175-.503.441-.546.676-.111 1.321-.36 1.919-.744.489-.314.949-.718 1.367-1.201.736-.849 1.094-1.655 1.133-1.744.003-.008.007-.017.011-.025.154-.311.189-.567.107-.762-.164-.384-.796-.582-1.212-.714-.119-.037-.233-.073-.329-.11-.364-.143-.646-.303-.838-.477-.349-.316-.35-.628-.321-.785.032-.169.145-.316.29-.448-.002 0-.003.001-.005.001-.284 0-.622-.09-1.003-.268-.112-.052-.24-.078-.381-.078-.227 0-.467.065-.674.188-.262.152-.43.367-.476.606-.031.156-.03.467.319.784.192.174.474.334.838.477.096.037.21.073.329.11.416.132 1.048.33 1.212.714.082.194.047.451-.107.762-.005.008-.008.017-.011.025-.039.09-.398.895-1.133 1.744-.418.484-.878.888-1.367 1.201-.598.384-1.243.633-1.919.744-.265.043-.456.279-.441.546.005.077.023.154.054.228v.002c.108.25.357.462.762.648.495.229 1.235.42 2.201.57.05.092.1.323.135.482.037.168.074.342.129.525.059.199.211.437.604.437.149 0 .319-.034.518-.071.29-.056.686-.133 1.179-.133.027 0 .056.007.083.007-.063-.076-.109-.16-.133-.24zM11.901 15.604c.006.11.014.224.021.336.165-.07.338-.117.508-.117.141 0 .268.026.381.078.382.178.719.268 1.003.268.176 0 .295-.037.368-.069-.01-.165-.022-.334-.031-.497v-.003c-.096-1.515-.215-3.401.289-4.519.343-.764.805-1.422 1.372-1.957.475-.449 1.027-.811 1.641-1.08.618-.271 1.199-.401 1.687-.47-.376-.053-.703-.074-.923-.074h-.002c-.02 0-.037 0-.054 0-.14.002-.366.005-.387.005-.499 0-1.499.07-2.572.54-.614.269-1.165.631-1.641 1.08-.566.535-1.028 1.193-1.372 1.957-.503 1.118-.384 3.004-.289 4.519v.003zM17.005 27.294c-.55-.386-1.026-.72-1.577-.811-.285-.048-.569-.071-.844-.071-.493 0-.89.078-1.179.133.458.134.878.417 1.35.748.804.566 1.716 1.206 3.108 1.206.038 0 .076-.002.114-.005.045.003.103.005.161.005.359 0 .686-.044.987-.117-.867-.209-1.523-.668-2.12-1.088z"/><path d="m17.938 29.282c-1.573 0-2.756-.792-3.662-1.398-.468-.313-.91-.609-1.221-.661-.705-.117-1.277-.022-1.736.055-.622.104-1.659.275-2.004-.884-.046-.15-.091-.344-.133-.53-.002-.01-.004-.02-.006-.029-1.343-.241-2.655-.645-3.059-1.583-.164-.378-.176-.729-.036-1.042.234-.523.773-.703 1.345-.893.985-.328 2.475-.823 3.511-3.156.067-.138.07-.186.07-.187-.071-.053-.541-.219-.822-.318-.806-.284-2.155-.76-1.893-2.175.17-.882 1.093-1.407 1.888-1.407.316 0 .606.11.862.208.028.011.058.022.087.033-.177-2.836-.208-6.213 3.772-7.956 2.284-1.003 5.782-.907 8.046 1.216 2.13 2.003 2.083 4.092 1.92 6.701.267-.102.568-.215.901-.215.927 0 1.941.635 1.963 1.66.024 1.268-1.191 1.689-1.996 1.968-.222.077-.57.197-.729.296.16.746 1.661 3.086 3.924 3.457.384.062.726.302.912.642.193.351.208.776.04 1.168-.409.939-1.722 1.342-3.062 1.584-.456 1.433-1.39 1.582-2.115 1.441-1.664-.327-2.134.006-2.992.608-.012.009-.024.019-.036.027-1.447 1.011-2.682 1.37-3.739 1.37zm-5.558-3.615c.281 0 .588.021.922.077.629.104 1.202.488 1.809.894 1.445.968 2.94 1.967 5.676.065.01-.008.021-.015.03-.022.989-.694 1.889-1.325 4.176-.876.181.036.286.058.45-.609.034-.135.062-.251.122-.366.109-.212.314-.359.55-.396 1.303-.204 1.899-.436 2.171-.593-2.044-.503-3.589-2.163-4.318-3.498-.453-.827-.582-1.479-.385-1.936.283-.658 1.016-.912 1.663-1.136.37-.128.99-.343.986-.521-.022-.05-.228-.19-.463-.19-.065.002-.253.073-.377.121-.404.153-1.015.387-1.638.103-.282-.129-.457-.418-.438-.728l.036-.566c.167-2.634.268-4.225-1.432-5.822-1.768-1.66-4.626-1.721-6.417-.936-3.211 1.405-3.036 4.071-2.851 6.894l.028.428c.02.315-.16.609-.45.735-.673.292-1.305.052-1.722-.105-.11-.042-.276-.105-.335-.11-.187 0-.384.126-.409.19.072.179.623.373.919.478.673.237 1.436.506 1.723 1.211.165.408.128.861-.112 1.346-1.292 2.911-3.312 3.582-4.396 3.942-.067.022-.143.047-.217.073.261.167.853.409 2.203.62.231.036.434.178.545.385.089.166.138.369.217.715.023.107.049.219.074.319.105-.012.241-.035.352-.053.35-.061.784-.133 1.308-.133zm16.308-1.745h.003c-.001 0-.002 0-.003 0z"/></svg>