<svg xmlns="http://www.w3.org/2000/svg" enable-background="new 0 0 36 36" viewBox="0 0 36 36"><path fill="#efefef" d="m8.114 5.564c-1.805 6.677-6.504 10.327-7.374 13.545s-.847 10.475 13.955 14.477 19.432-4.501 20.388-8.041c4.481-16.572-23.772-31.807-26.969-19.981z"/><path fill="#a4afc1" d="M14.275 32.134h2v1h-2zM20.025 32.134h2v1h-2zM17.525 34.634h1v2h-1zM10.262 13.062c-.827 0-1.5-.673-1.5-1.5s.673-1.5 1.5-1.5 1.5.673 1.5 1.5-.673 1.5-1.5 1.5zm0-2c-.275 0-.5.224-.5.5s.225.5.5.5.5-.224.5-.5-.225-.5-.5-.5z"/><path fill="#f3f3f1" d="m18.577 6.75c.192.152.359.338.542.502 1.658 1.616 3.178 3.4 4.402 5.392 1.184 1.928 2.094 4.059 2.498 6.311.223 1.234.297 2.499.167 3.747-.059.522-.147 1.044-.308 1.543-.226.723-.523 1.426-.93 2.062-.35.548-.788 1.038-1.294 1.435-.557.435-1.192.752-1.853.971-.822.271-1.684.405-2.543.478-1.026.079-2.057.093-3.08-.041-1.158-.149-2.308-.467-3.34-1.041-.955-.531-1.794-1.309-2.334-2.289-.624-1.12-.831-2.447-.732-3.727.102-1.356.52-2.671 1.074-3.899.48-1.056 1.068-2.056 1.721-3.007.557-.805 1.845-2.33 1.859-2.339-.011.609.045 1.222.215 1.808.172.598.463 1.161.85 1.642.023.029.04.07.082.076.839-.65 1.633-1.379 2.252-2.257.641-.907 1.071-1.968 1.235-3.08.218-1.438.031-2.934-.483-4.287z"/><path fill="#d5dbe1" d="M17.826 14.116c-.234.333-.5.638-.778.932.174.448.395.878.694 1.249.023.029.04.07.082.076.839-.65 1.633-1.379 2.252-2.257.641-.907 1.071-1.969 1.235-3.08.067-.444.083-.893.075-1.342-.713-.855-1.472-1.67-2.266-2.443-.184-.163-.35-.35-.542-.502.514 1.353.701 2.849.483 4.287-.165 1.112-.594 2.173-1.235 3.08zM18.429 29.149c-1.158-.149-2.308-.467-3.34-1.041-.955-.531-1.794-1.309-2.334-2.289-.624-1.12-.831-2.447-.732-3.727.102-1.356.52-2.671 1.074-3.899.48-1.056 1.068-2.056 1.721-3.007.007-.01.016-.022.023-.032-.069-.166-.149-.327-.199-.499-.169-.586-.226-1.199-.215-1.808-.014.009-1.302 1.534-1.859 2.339-.653.951-1.24 1.951-1.721 3.007-.554 1.228-.972 2.543-1.074 3.899-.099 1.28.107 2.607.732 3.727.54.98 1.379 1.758 2.334 2.289 1.031.575 2.181.892 3.34 1.041.98.129 1.969.116 2.952.046-.234-.016-.469-.015-.702-.046z"/><path d="m17.899 29.994c-3.814 0-6.627-1.279-8.004-3.668-1.707-2.961-.958-7.176 2.054-11.563.268-.387 1.819-2.383 2.072-2.545.232-.149.53-.159.771-.024.242.135.39.392.385.668-.018.967.154 1.755.536 2.431 1.568-1.353 2.358-2.689 2.605-4.365.195-1.287.042-2.638-.442-3.911-.12-.315-.015-.671.257-.871.273-.2.645-.194.908.016.762.6 3.402 3.292 5.119 6.09 1.329 2.165 2.203 4.375 2.598 6.571.372 2.062.311 4.175-.166 5.653-1.091 3.487-3.266 5.123-7.271 5.463-.488.036-.963.055-1.422.055zm-4.024-15.295c-.264.333-.518.665-.69.915-2.671 3.89-3.396 7.522-1.99 9.963 1.239 2.149 4.084 3.166 8.006 2.866 3.384-.287 5.057-1.527 5.962-4.422.479-1.482.375-3.519.119-4.933-.361-2.011-1.168-4.047-2.398-6.052-.854-1.392-2.021-2.834-3.011-3.934.055.687.032 1.374-.07 2.047-.334 2.262-1.496 4.057-3.769 5.817-.159.124-.36.176-.561.15-.212-.029-.469-.203-.589-.38-.478-.592-.815-1.269-1.009-2.037zm2.187 1.112c.005.006.01.011.014.017-.002-.005-.007-.011-.014-.017z"/></svg>