<svg xmlns="http://www.w3.org/2000/svg" enable-background="new 0 0 36 36" viewBox="0 0 36 36"><path fill="#efefef" d="m34.904 20.355c-3.782-5.791-3.38-11.727-5.203-14.518s-7.256-7.603-20.093.782-9.572 17.5-7.566 20.569c9.388 14.372 39.561 3.423 32.862-6.833z"/><g fill="#a4afc1"><path d="m27.25 23.075c-.827 0-1.5-.673-1.5-1.5s.673-1.5 1.5-1.5 1.5.673 1.5 1.5-.673 1.5-1.5 1.5zm0-2c-.275 0-.5.224-.5.5s.225.5.5.5.5-.224.5-.5-.225-.5-.5-.5z"/><path d="m14.646 1.709h2v1h-2z" transform="rotate(-45.001 15.646 2.21)"/><path d="m10.58 5.775h2v1h-2z" transform="rotate(-45.001 11.58 6.275)"/><path d="m11.08 1.032h1v2h-1z" transform="rotate(-45.001 11.58 2.032)"/></g><path fill="#f3f3f1" d="m24.5 27.945-1.091-3.215c-.425.201-1.232.375-1.828.393h-.085c-1.73 0-2.069-1.286-2.084-2.226v-7.013h4.55v-3.411h-4.532v-5.74h-3.32c-.055 0-.15.048-.163.168-.187 1.758-1.02 4.84-4.447 6.073v2.909h2.281v7.362c0 2.492 1.83 6.018 6.638 6.018l-.01-.002h.168c1.657-.026 3.511-.719 3.923-1.316z"/><path fill="#d5dbe1" d="M21.492 29.18c-3.927-.527-5.462-3.657-5.462-5.933v-7.362h-2.25v7.362c0 2.492 1.83 6.019 6.638 6.019l-.01-.002h.168c.303-.006.611-.039.916-.084zM23.409 24.73c-.162.077-.387.146-.628.207.21.091.463.145.754.165zM18.197 6.903c.013-.12.109-.168.163-.168h-2.25c-.055 0-.15.048-.163.168-.187 1.758-1.02 4.84-4.447 6.073v2.909h2.25v-2.909c3.427-1.233 4.26-4.315 4.447-6.073z"/><path d="m20.419 30.015c-5.42 0-7.388-4.048-7.388-6.769v-6.612h-1.531c-.414 0-.75-.336-.75-.75v-2.909c0-.316.198-.599.496-.706 3.055-1.099 3.789-3.884 3.954-5.446.055-.48.446-.839.91-.839h3.32c.414 0 .75.336.75.75v4.99h3.782c.414 0 .75.336.75.75v3.41c0 .414-.336.75-.75.75h-3.801v6.263c.021 1.299.687 1.476 1.334 1.476.599-.017 1.299-.183 1.591-.321.193-.092.419-.097.613-.013.197.083.35.247.418.449l1.092 3.215c.076.225.042.472-.093.667-.654.948-2.869 1.614-4.528 1.642h-.115c-.017.003-.035.003-.054.003zm-8.169-14.88h1.531c.414 0 .75.336.75.75v7.362c0 2.107 1.553 5.238 5.825 5.269.018-.001.034-.002.052-.002h.168c1.289-.021 2.521-.474 3.055-.796l-.693-2.041c-.435.109-.921.184-1.332.197-.009 0-.102 0-.109 0-1.743 0-2.803-1.108-2.834-2.963v-7.025c0-.414.336-.75.75-.75h3.801v-1.91h-3.782c-.414 0-.75-.336-.75-.75v-4.99h-2.055c-.291 1.859-1.26 4.646-4.376 6v1.649z"/></svg>