<svg xmlns="http://www.w3.org/2000/svg" enable-background="new 0 0 36 36" viewBox="0 0 36 36"><path fill="#efefef" d="m8.377 4.167c6.917 0 11.667-3.583 15-3.583s10.333 1.916 10.333 17.249-9.417 17.583-13.083 17.583c-17.167.001-24.5-31.249-12.25-31.249z"/><g fill="#a4afc1"><path d="m29.25 29.282c-.827 0-1.5-.673-1.5-1.5s.673-1.5 1.5-1.5 1.5.673 1.5 1.5-.673 1.5-1.5 1.5zm0-2c-.275 0-.5.224-.5.5s.225.5.5.5.5-.224.5-.5-.225-.5-.5-.5z"/><path d="m32.326 6.106h1v2h-1z" transform="rotate(-45.001 32.826 7.106)"/><path d="m28.261 2.04h1v2h-1z" transform="rotate(-45.001 28.76 3.04)"/><path d="m32.003 2.54h2v1h-2z" transform="rotate(-45.001 33.003 3.04)"/></g><path fill="#f3f3f1" d="m8.283 6.75-1.533 3.914v15.651h5.624v2.935h3.071l3.066-2.936h4.603l6.137-5.867v-13.697zm18.032 12.412-3.528 3.326h-4.212l-3.021 2.848v-2.848h-5.87v-13.782h16.63v10.456z"/><path fill="#2fdf84" d="m9.685 8.707h16.63v10.455l-3.528 3.327h-4.212l-3.021 2.848v-2.848h-5.869z"/><path fill="#d5dbe1" d="M18.575 22.489l-.771.726v2.122l3.021-2.848zM28.565 19.162v-10.456h-2.25v10.456l-3.528 3.327h2.25zM12.374 26.315h2.25v2.935h-2.25zM9.685 8.916v-.21h.082l.766-1.956h-2.25l-1.533 3.914v15.651h2.25v-15.651z"/><path fill="#00b871" d="M9.685 8.706h2.25v13.782h-2.25zM17.804 22.489h-2.25v2.848l2.25-2.122z"/><path d="m15.444 30h-3.07c-.414 0-.75-.336-.75-.75v-2.186h-4.874c-.414 0-.75-.336-.75-.75v-15.65c0-.094.018-.187.052-.273l1.533-3.914c.112-.288.39-.477.698-.477h20.967c.414 0 .75.336.75.75v13.697c0 .205-.084.401-.231.542l-6.138 5.867c-.14.134-.325.208-.519.208h-4.302l-2.848 2.728c-.139.133-.324.208-.518.208zm-2.32-1.5h2.02l2.848-2.728c.14-.134.325-.208.519-.208h4.302l5.688-5.438v-12.626h-19.706l-1.295 3.306v14.759h4.874c.414 0 .75.336.75.75z"/><path d="m15.555 26.087c-.101 0-.201-.02-.297-.062-.275-.119-.453-.389-.453-.688v-2.098h-5.12c-.414 0-.75-.336-.75-.75v-13.782c0-.414.336-.75.75-.75h16.631c.414 0 .75.336.75.75v10.456c0 .207-.085.404-.235.546l-3.528 3.327c-.14.131-.323.204-.515.204h-3.914l-2.804 2.644c-.142.133-.328.203-.515.203zm-5.12-4.348h5.12c.414 0 .75.336.75.75v1.11l1.756-1.656c.14-.131.323-.204.515-.204h3.914l3.076-2.9v-9.382h-15.131z"/><path d="M22 12.75h1.5v4.5h-1.5zM17.032 12.75h1.5v4.5h-1.5z"/></svg>