<svg xmlns="http://www.w3.org/2000/svg" enable-background="new 0 0 36 36" viewBox="0 0 36 36"><path fill="#efefef" d="m7.678 5.564c-1.805 6.677-6.504 10.327-7.374 13.545s-.847 10.475 13.955 14.477 19.432-4.501 20.388-8.041c4.481-16.572-23.772-31.807-26.969-19.981z"/><g fill="#a4afc1"><path d="m3.556 23.467h1v2h-1z" transform="rotate(-44.992 4.055 24.466)"/><path d="m7.621 27.533h1v2h-1z" transform="rotate(-44.992 8.12 28.532)"/><path d="m2.879 28.033h2v1h-2z" transform="rotate(-45.001 3.879 28.533)"/><path d="m30 30.033c-.827 0-1.5-.673-1.5-1.5s.673-1.5 1.5-1.5 1.5.673 1.5 1.5-.673 1.5-1.5 1.5zm0-2c-.275 0-.5.224-.5.5s.225.5.5.5.5-.224.5-.5-.225-.5-.5-.5z"/></g><path fill="#f3f3f1" d="m28.81 13.032c-.265-1.569-1.477-2.79-3.019-3.019-1.712-.254-4.309-.513-7.791-.513s-6.079.259-7.791.513c-1.542.229-2.753 1.45-3.019 3.019-.227 1.344-.44 3.101-.44 4.968 0 1.866.213 3.624.44 4.968.265 1.569 1.477 2.79 3.019 3.019 1.713.254 4.312.513 7.8.513 3.482 0 6.074-.258 7.782-.512 1.541-.229 2.753-1.45 3.018-3.019.227-1.344.44-3.102.44-4.969.001-1.867-.212-3.624-.439-4.968zm-13.256 8.468v-7l5.87 3.505z"/><path fill="#2fdf84" d="m15.554 21.5v-7l5.87 3.505z"/><path fill="#d5dbe1" d="m12.459 25.987c-1.542-.229-2.754-1.45-3.019-3.019-.227-1.344-.44-3.102-.44-4.968 0-1.867.213-3.624.44-4.968.265-1.569 1.477-2.79 3.019-3.019 1.521-.226 3.746-.454 6.666-.503-.365-.006-.738-.01-1.125-.01-3.482 0-6.079.259-7.791.513-1.542.229-2.753 1.45-3.019 3.019-.227 1.344-.44 3.101-.44 4.968 0 1.866.213 3.624.44 4.968.265 1.569 1.477 2.79 3.019 3.019 1.713.254 4.312.513 7.8.513.387 0 .759-.004 1.124-.01-2.924-.049-5.151-.277-6.674-.503z"/><path fill="#00b871" d="m17.804 15.844-2.25-1.344v7l2.25-1.34z"/><path d="m15.555 22.25c-.128 0-.256-.033-.371-.098-.234-.133-.379-.382-.379-.652v-7c0-.27.146-.519.38-.652.235-.132.523-.129.755.008l5.869 3.505c.227.136.365.38.365.645s-.14.509-.366.644l-5.869 3.495c-.119.07-.251.105-.384.105zm.75-6.429v4.359l3.655-2.176z"/><path d="m18.011 27.248c-2.79 0-5.581-.173-7.912-.519-1.861-.276-3.327-1.737-3.647-3.636-.596-3.521-.596-6.663 0-10.186.32-1.898 1.786-3.359 3.647-3.636 4.653-.692 11.151-.691 15.803 0 1.861.276 3.327 1.738 3.647 3.636.3 1.767.451 3.481.451 5.093 0 1.613-.151 3.327-.451 5.094-.321 1.898-1.787 3.359-3.646 3.636-2.323.345-5.107.518-7.892.518zm-.012-16.997c-2.709 0-5.419.168-7.68.503-1.218.181-2.178 1.146-2.39 2.402-.574 3.396-.574 6.292 0 9.687.212 1.256 1.172 2.222 2.39 2.402 4.527.672 10.845.673 15.362.001 1.216-.181 2.176-1.146 2.389-2.402.285-1.685.43-3.314.43-4.844 0-1.528-.145-3.158-.43-4.843-.212-1.256-1.172-2.221-2.39-2.402-2.261-.336-4.971-.504-7.681-.504z"/></svg>