<svg xmlns="http://www.w3.org/2000/svg" enable-background="new 0 0 256 256" viewBox="0 0 256 256"><path fill="#3193F3" d="M128.021,15.022c-60.179,0-108.963,48.784-108.963,108.963c0,27.109,9.903,51.904,26.285,70.97v35.707
				c0,7.923,8.577,12.875,15.438,8.913l25.695-14.835c12.804,5.285,26.832,8.208,41.545,8.208
				c60.179,0,108.963-48.784,108.963-108.963C236.984,63.806,188.2,15.022,128.021,15.022z"/><path fill="#35B1FC" d="M34.833,123.99c0,27.106,9.904,51.898,26.286,70.961v35.717c0,2.828,1.093,5.289,2.818,7.087
				l-3.154,1.819c-6.866,3.964-15.435-0.988-15.435-8.906V194.95c-16.381-19.062-26.286-43.855-26.286-70.961
				c0-63.279,53.729-113.266,116.845-108.686C79.403,19.341,34.833,66.456,34.833,123.99z"/><path fill="#307FED" d="M236.98,123.99c0,60.173-48.776,108.959-108.959,108.959c-2.65,0-5.278-0.095-7.875-0.284
				c56.493-4.048,101.063-51.162,101.063-108.675c0-57.534-44.57-104.648-101.073-108.686
				C183.266,10.722,236.98,60.726,236.98,123.99z"/><path fill="#FFE2E2" d="M66.176,141.544l36.958-46.967c3.95-5.812,12.039-6.974,17.465-2.51l21.145,17.396
				c4.182,3.441,10.156,3.637,14.554,0.477l24.642-24.016c5.409-3.885,12.361,2.185,9.241,8.068l-27.949,47.327
				c-3.271,6.168-11.112,8.227-16.992,4.462l-24.982-16c-4.197-2.688-9.621-2.487-13.608,0.504l-31.483,19.838
				c-2.12,1.591-5.01,1.684-7.229,0.234h0C64.99,148.43,64.196,144.458,66.176,141.544z"/><path fill="#5F266D" d="M128.021,11.022c-95.942,0-147.709,112.427-86.678,185.401v34.239c0,10.987,11.89,17.891,21.438,12.377
			l24.008-13.861c13.137,5.157,26.997,7.77,41.231,7.77c62.288,0,112.963-50.675,112.963-112.963S190.309,11.022,128.021,11.022z
			 M128.021,228.948c-13.847,0-27.312-2.66-40.018-7.905c-1.146-0.474-2.45-0.388-3.526,0.233l-25.695,14.835
			c-4.195,2.421-9.438-0.602-9.438-5.45v-35.707c0-0.957-0.343-1.881-0.966-2.607c-58.236-67.78-9.893-173.327,79.644-173.327
			c57.877,0,104.963,47.086,104.963,104.963S185.898,228.948,128.021,228.948z"/><path fill="#5F266D" d="M191.389 83.283c-4.654-4.064-10.69-2.697-13.241-.223l-24.404 23.785c-2.9 1.937-6.75 1.757-9.459-.471L123.14 88.978c-7.163-5.893-17.903-4.455-23.23 3.227-.132.168-36.923 46.914-37.043 47.091-3.24 4.77-1.943 11.255 2.883 14.41 3.552 2.323 8.22 2.22 11.67-.274.22-.139 31.422-19.791 31.63-19.947 2.636-1.979 6.274-2.113 9.05-.335l24.982 16c7.808 5.003 18.243 2.294 22.636-5.87l27.906-47.253C195.87 92.24 195.407 86.79 191.389 83.283zM186.681 92.054c-.094.16-27.894 47.23-27.983 47.393-2.175 4.102-7.377 5.479-11.3 2.968l-24.982-16.001c-5.524-3.537-12.745-3.302-18.025.569-.216.136-31.419 19.79-31.624 19.942-.77.579-1.832.613-2.639.086-1.06-.694-1.343-2.088-.701-3.129.132-.168 36.896-46.879 37.016-47.056 2.621-3.858 7.988-4.654 11.615-1.669l21.146 17.396c7.055 5.805 16.38 3.653 19.888.253l24.383-23.764c1.25-.756 2.263-.074 2.655.268C186.535 89.665 187.392 90.636 186.681 92.054zM111.486 38.164c2.167-.327 4.386-.57 6.599-.721 2.204-.151 3.868-2.06 3.718-4.264-.151-2.203-2.055-3.869-4.264-3.718-2.429.166-4.867.433-7.248.792-2.185.33-3.688 2.369-3.357 4.553C107.265 36.999 109.311 38.494 111.486 38.164zM69.032 59.252c.099-.112 10.052-11.325 28.607-17.699 2.089-.718 3.201-2.993 2.484-5.083-.718-2.09-2.996-3.198-5.083-2.484-20.553 7.06-31.572 19.475-32.031 20-1.454 1.663-1.285 4.19.378 5.644C65.051 61.085 67.578 60.916 69.032 59.252z"/></svg>