<svg xmlns="http://www.w3.org/2000/svg" enable-background="new 0 0 256 256" viewBox="0 0 256 256"><path fill="#BD66D3" d="M179.863,239.018H76.137c-32.671,0-59.156-26.485-59.156-59.156V76.137
					c0-32.671,26.485-59.156,59.156-59.156h103.725c32.671,0,59.156,26.485,59.156,59.156v103.725
					C239.018,212.534,212.534,239.018,179.863,239.018z"/><path fill="#FFE2E2" d="M179.865,16.977H76.135c-32.668,0-59.157,26.489-59.157,59.157v103.731
					c0,32.668,26.489,59.157,59.157,59.157h103.731c32.668,0,59.157-26.489,59.157-59.157V76.135
					C239.023,43.467,212.533,16.977,179.865,16.977z M216.999,179.865c0,20.47-16.664,37.134-37.134,37.134H76.135
					c-20.47,0-37.134-16.664-37.134-37.134V76.135c0-20.47,16.664-37.134,37.134-37.134h103.731
					c20.47,0,37.134,16.664,37.134,37.134V179.865z"/><path fill="#FFEFEE" d="M94.488,239.023H76.135c-32.668,0-59.157-26.489-59.157-59.157V76.135
					c0-32.668,26.489-59.157,59.157-59.157h18.353c-32.668,0-59.157,26.489-59.157,59.157v103.731
					C35.33,212.533,61.819,239.023,94.488,239.023z"/><path fill="#FFCFCF" d="M239.023,76.135v103.731c0,32.668-26.489,59.157-59.157,59.157h-18.353
					c32.668,0,59.157-26.489,59.157-59.157V76.135c0-32.668-26.489-59.157-59.157-59.157h18.353
					C212.533,16.977,239.023,43.467,239.023,76.135z"/><path fill="#FFE2E2" d="M128,77.835c-27.701,0-50.165,22.464-50.165,50.165s22.464,50.165,50.165,50.165
					s50.165-22.464,50.165-50.165S155.701,77.835,128,77.835z M128,156.141c-15.514,0-28.141-12.627-28.141-28.141
					S112.486,99.859,128,99.859s28.141,12.627,28.141,28.141S143.514,156.141,128,156.141z"/><circle cx="184.478" cy="71.706" r="11.648" fill="#FFE2E2"/><path fill="#FFE2E2" d="M128,77.835c-27.701,0-50.165,22.464-50.165,50.165s22.464,50.165,50.165,50.165
					s50.165-22.464,50.165-50.165S155.701,77.835,128,77.835z M128,156.141c-15.514,0-28.141-12.627-28.141-28.141
					S112.486,99.859,128,99.859s28.141,12.627,28.141,28.141S143.514,156.141,128,156.141z"/><circle cx="184.478" cy="71.706" r="11.648" fill="#FFE2E2"/><path fill="#FFE2E2" d="M128,77.835c-27.701,0-50.165,22.464-50.165,50.165s22.464,50.165,50.165,50.165
					s50.165-22.464,50.165-50.165S155.701,77.835,128,77.835z M128,156.141c-15.514,0-28.141-12.627-28.141-28.141
					S112.486,99.859,128,99.859s28.141,12.627,28.141,28.141S143.514,156.141,128,156.141z"/><circle cx="184.478" cy="71.706" r="11.648" fill="#FFE2E2"/><path fill="#5F266D" d="M179.862,12.981H76.138c-34.824,0-63.156,28.332-63.156,63.156v103.726
			c0,34.824,28.332,63.156,63.156,63.156h103.725c34.824,0,63.156-28.332,63.156-63.156V76.137
			C243.019,41.313,214.687,12.981,179.862,12.981z M235.019,179.863c0,30.413-24.743,55.156-55.156,55.156H76.138
			c-30.413,0-55.156-24.743-55.156-55.156V76.137c0-30.413,24.743-55.156,55.156-55.156h103.725
			c30.413,0,55.156,24.743,55.156,55.156V179.863z"/><path fill="#5F266D" d="M179.862,35.005H76.138c-22.681,0-41.133,18.452-41.133,41.132v103.725
			c0,22.681,18.452,41.132,41.133,41.132h103.725c22.681,0,41.133-18.452,41.133-41.132V76.138
			C220.995,53.457,202.543,35.005,179.862,35.005z M212.995,179.862c0,18.269-14.863,33.132-33.133,33.132H76.138
			c-18.27,0-33.133-14.863-33.133-33.132V76.138c0-18.269,14.863-33.132,33.133-33.132h103.725c18.27,0,33.133,14.863,33.133,33.132
			V179.862z"/><path fill="#5F266D" d="M128,73.838c-29.864,0-54.161,24.297-54.161,54.162S98.136,182.162,128,182.162
			s54.161-24.297,54.161-54.162S157.864,73.838,128,73.838z M128,174.162c-25.453,0-46.161-20.708-46.161-46.162
			S102.547,81.838,128,81.838s46.161,20.708,46.161,46.162S153.453,174.162,128,174.162z"/><path fill="#5F266D" d="M128 95.862c-17.722 0-32.139 14.417-32.139 32.138s14.417 32.138 32.139 32.138 32.139-14.417 32.139-32.138S145.722 95.862 128 95.862zM128 152.138c-13.311 0-24.139-10.828-24.139-24.138s10.828-24.138 24.139-24.138S152.139 114.69 152.139 128 141.311 152.138 128 152.138zM184.479 56.056c-8.63 0-15.65 7.021-15.65 15.651s7.021 15.651 15.65 15.651 15.651-7.021 15.651-15.651S193.108 56.056 184.479 56.056zM184.479 79.357c-4.219 0-7.65-3.432-7.65-7.651s3.432-7.651 7.65-7.651 7.651 3.432 7.651 7.651S188.697 79.357 184.479 79.357zM59.876 182.138c-2.209 0-4 1.791-4 4v5.654c0 2.209 1.791 4 4 4s4-1.791 4-4v-5.654C63.876 183.929 62.085 182.138 59.876 182.138zM59.876 152.138c-2.209 0-4 1.791-4 4v15c0 2.209 1.791 4 4 4s4-1.791 4-4v-15C63.876 153.929 62.085 152.138 59.876 152.138z"/></svg>