<svg xmlns="http://www.w3.org/2000/svg" enable-background="new 0 0 256 256" viewBox="0 0 256 256"><rect width="233.068" height="233.068" x="11.466" y="11.466" fill="#FF4A73"/><rect width="15.337" height="233.065" x="11.468" y="11.468" fill="#F973A3"/><rect width="15.337" height="233.065" x="229.195" y="11.468" fill="#EA2A6A"/><rect width="21.621" height="133.604" x="67.778" y="61.198" fill="#87828E"/><circle cx="149.198" cy="100.223" r="39.025" fill="#FFE2E2"/><path fill="#5F266D" d="M244.534,7.466H11.466c-2.209,0-4,1.791-4,4v233.068c0,2.209,1.791,4,4,4h233.068c2.209,0,4-1.791,4-4
			V11.466C248.534,9.257,246.743,7.466,244.534,7.466z M240.534,240.534H15.466V15.466h225.068V240.534z"/><path fill="#5F266D" d="M67.777 198.802h21.621c2.209 0 4-1.791 4-4V61.198c0-2.209-1.791-4-4-4H67.777c-2.209 0-4 1.791-4 4v133.604C63.777 197.011 65.568 198.802 67.777 198.802zM71.777 65.198h13.621v125.604H71.777V65.198zM149.198 143.247c23.724 0 43.025-19.301 43.025-43.024 0-23.724-19.301-43.025-43.025-43.025s-43.025 19.301-43.025 43.025C106.173 123.946 125.474 143.247 149.198 143.247zM149.198 65.198c19.313 0 35.025 15.712 35.025 35.025 0 19.313-15.712 35.024-35.025 35.024s-35.025-15.712-35.025-35.024C114.173 80.91 129.885 65.198 149.198 65.198zM168.844 217.728h-5.398c-2.209 0-4 1.791-4 4s1.791 4 4 4h5.398c2.209 0 4-1.791 4-4S171.053 217.728 168.844 217.728zM179.844 221.728c0 2.209 1.791 4 4 4h28c2.209 0 4-1.791 4-4s-1.791-4-4-4h-28C181.635 217.728 179.844 219.519 179.844 221.728z"/></svg>