<svg xmlns="http://www.w3.org/2000/svg" enable-background="new 0 0 256 256" viewBox="0 0 256 256"><path fill="#87828E" d="M240.943,127.997c0,52.746-36.161,97.056-85.047,109.456c-69.943,18.406-140.84-34.996-140.84-109.456
							c0-59.968,46.736-109.026,105.778-112.714C185.547,11.152,240.943,62.488,240.943,127.997z"/><path fill="#A4A4A5" d="M135.165,240.711c-65.039,4.151-120.109-47.527-120.109-112.714
							c0-65.363,55.238-116.855,120.109-112.714C75.92,19.045,29.387,68.168,29.387,127.997
							C29.387,187.511,75.602,236.93,135.165,240.711z"/><path fill="#796E84" d="M240.943,127.997c0,65.48-55.374,116.846-120.109,112.714
							c59.343-3.767,105.778-52.985,105.778-112.714c0-59.841-46.545-108.952-105.778-112.714
							C185.547,11.152,240.943,62.488,240.943,127.997z"/><path fill="#44C7B6" d="M202.992,97.808c-13.915,0.309-34.661-3.452-43.351-9.348v54.681c0,31.471-25.614,57.085-57.085,57.085
					c-20.107,0-37.797-10.437-47.965-26.179c-5.776-8.919-9.12-19.53-9.12-30.907c0-28.274,20.658-51.82,47.683-56.306
					c3.062-0.511,6.205-0.779,9.402-0.779v26.864c-16.669,0-30.222,13.552-30.222,30.222c0,4.768,1.101,9.281,3.076,13.297
					c4.929,10.02,15.245,16.924,27.146,16.924c16.655,0,30.222-13.553,30.222-30.222V43.301h25.889
					c2.48,5.007,14.958,36.446,44.325,25.946V97.808z"/><path fill="#FF4A73" d="M213.328,117.808c-13.915,0.309-24.997-3.452-33.687-9.348v54.681c0,31.471-25.614,57.085-57.085,57.085
					c-20.107,0-37.797-10.437-47.965-26.179c-5.776-8.919-9.12-19.53-9.12-30.907c0-28.274,20.658-51.82,47.683-56.306
					c3.062-0.511,6.205-0.779,9.402-0.779v26.864c-16.669,0-30.222,13.552-30.222,30.222c0,4.768,1.101,9.281,3.076,13.297
					c4.929,10.02,15.245,16.924,27.146,16.924c16.655,0,30.222-13.553,30.222-30.222V53.301H182
					c1.513,5.822-3.833,32.362,30.656,37.643L213.328,117.808z"/><path fill="#FFE2E2" d="M202.992,107.808c-13.915,0.309-24.661-3.452-33.351-9.348v54.681c0,31.471-25.614,57.085-57.085,57.085
					c-20.107,0-37.797-10.437-47.965-26.179c-5.776-8.919-9.12-19.53-9.12-30.907c0-28.274,20.658-51.82,47.683-56.306
					c3.062-0.511,6.205-0.779,9.402-0.779v26.864c-16.669,0-30.222,13.552-30.222,30.222c0,4.768,1.101,9.281,3.076,13.297
					c4.929,10.02,15.245,16.924,27.146,16.924c16.655,0,30.222-13.553,30.222-30.222V53.301h25.889
					c2.48,5.007,13.846,28.463,34.325,27.643V107.808z"/><path fill="#5F266D" d="M131.326,11.102C64.566,9.333,11.057,63.055,11.057,127.997c0,64.299,52.144,116.943,116.943,116.943
			c64.516,0,116.943-52.112,116.943-116.943C244.943,63.995,193.397,12.608,131.326,11.102z M131.114,236.893
			c-61.73,1.631-112.057-47.095-112.057-108.896c0-58.84,47.589-108.943,108.943-108.943c60.467,0,108.943,49.248,108.943,108.943
			C236.943,187.802,188.88,235.68,131.114,236.893z"/><path fill="#5F266D" d="M111.465 38.166c2.167-.327 4.386-.57 6.599-.722 2.204-.15 3.868-2.059 3.718-4.263-.151-2.203-2.05-3.873-4.264-3.718-2.429.166-4.867.433-7.248.792-2.185.33-3.688 2.368-3.357 4.553C107.239 36.971 109.254 38.496 111.465 38.166zM69.011 59.255c.099-.112 10.052-11.326 28.607-17.699 2.089-.718 3.201-2.993 2.484-5.083-.718-2.089-2.996-3.198-5.083-2.483-20.553 7.06-31.572 19.475-32.031 20-1.454 1.663-1.285 4.19.378 5.645C65.03 61.087 67.557 60.918 69.011 59.255zM202.832 76.947c-14.224.564-24.272-12.664-30.581-25.421-.675-1.362-2.064-2.225-3.584-2.225h-25.889c-2.209 0-4 1.791-4 4v99.839c0 14.459-11.763 26.222-26.222 26.222-10.073 0-19.099-5.629-23.556-14.689-1.769-3.598-2.666-7.478-2.666-11.532 0-14.459 11.763-26.222 26.222-26.222 2.209 0 4-1.791 4-4V96.054c0-2.209-1.791-4-4-4-33.655 0-61.085 27.019-61.085 61.086 0 33.361 27.039 61.085 61.085 61.085 33.682 0 61.085-27.402 61.085-61.085v-47.666c8.789 4.497 18.487 6.568 29.44 6.332 2.174-.049 3.911-1.824 3.911-3.999V80.944C206.992 78.672 205.095 76.85 202.832 76.947zM198.992 103.781c-10.229-.38-19.128-3.219-27.105-8.632-2.65-1.799-6.246.103-6.246 3.31v54.682c0 29.271-23.814 53.085-53.085 53.085-29.549 0-53.085-24.071-53.085-53.085 0-27.883 21.268-50.833 49.085-52.935v18.945c-16.992 1.987-30.222 16.473-30.222 33.989 0 5.289 1.173 10.357 3.487 15.063 5.813 11.817 17.59 19.159 30.735 19.159 18.87 0 34.222-15.352 34.222-34.222V57.302h19.434c10.703 20.451 23.073 26.545 32.781 27.516V103.781z"/></svg>