<svg xmlns="http://www.w3.org/2000/svg" enable-background="new 0 0 256 256" viewBox="0 0 256 256"><polygon fill="#FFE2E2" points="17.792 50.557 33.498 11.565 238.208 11.565 238.208 150.204 175.928 212.483 128 212.483 106.067 244.435 71.949 244.435 71.949 213.025 17.792 213.025"/><polygon fill="#BD66D3" points="50.828 33.227 50.828 182.778 98.653 182.778 98.653 212.483 99.647 212.483 120.39 182.266 179.719 182.266 211.738 147.315 211.738 33.227"/><rect width="23.016" height="61.377" x="104.984" y="74.024" fill="#FFE2E2"/><rect width="23.016" height="61.377" x="152.37" y="74.024" fill="#FFE2E2"/><rect width="15" height="149.55" x="50.83" y="33.23" fill="#D488ED"/><polygon fill="#A442BC" points="211.74 33.23 211.74 147.32 179.72 182.27 164.72 182.27 196.74 147.32 196.74 33.23"/><path fill="#5F266D" d="M238.208,7.564H33.498c-1.632,0-3.101,0.992-3.71,2.505L14.082,49.062c-0.191,0.475-0.29,0.982-0.29,1.495
			v162.468c0,2.209,1.791,4,4,4h50.156v27.411c0,2.209,1.791,4,4,4h34.118c1.318,0,2.552-0.649,3.298-1.736l20.741-30.216h45.822
			c1.061,0,2.078-0.421,2.828-1.171l62.28-62.279c0.75-0.75,1.172-1.768,1.172-2.829V11.564
			C242.208,9.355,240.417,7.564,238.208,7.564z M234.208,148.547l-59.938,59.936H128c-1.318,0-2.552,0.649-3.298,1.736
			l-20.741,30.216H75.948v-27.411c0-2.209-1.791-4-4-4H21.792V51.332l14.407-35.768h198.009V148.547z"/><path fill="#5F266D" d="M50.828,186.778h43.825v25.706c0,2.209,1.791,4,4,4h0.994c1.318,0,2.552-0.649,3.298-1.736l19.551-28.481
			h57.223c1.122,0,2.191-0.471,2.949-1.298l32.02-34.951c0.676-0.738,1.051-1.702,1.051-2.702V33.227c0-2.209-1.791-4-4-4H50.828
			c-2.209,0-4,1.791-4,4v149.551C46.828,184.987,48.619,186.778,50.828,186.778z M54.828,37.227h152.91V145.76l-29.78,32.506H120.39
			c-1.318,0-2.552,0.649-3.298,1.736l-14.438,21.034v-18.259c0-2.209-1.791-4-4-4H54.828V37.227z"/><path fill="#5F266D" d="M104.983 139.401H128c2.209 0 4-1.791 4-4V74.024c0-2.209-1.791-4-4-4h-23.017c-2.209 0-4 1.791-4 4v61.377C100.983 137.61 102.774 139.401 104.983 139.401zM108.983 78.024H124v53.377h-15.017V78.024zM152.37 139.401h23.017c2.209 0 4-1.791 4-4V74.024c0-2.209-1.791-4-4-4H152.37c-2.209 0-4 1.791-4 4v61.377C148.37 137.61 150.161 139.401 152.37 139.401zM156.37 78.024h15.017v53.377H156.37V78.024zM74.667 79.75c-2.209 0-4 1.791-4 4V86c0 2.209 1.791 4 4 4s4-1.791 4-4v-2.25C78.667 81.541 76.876 79.75 74.667 79.75zM74.667 45.75c-2.209 0-4 1.791-4 4v19c0 2.209 1.791 4 4 4s4-1.791 4-4v-19C78.667 47.541 76.876 45.75 74.667 45.75z"/></svg>