<svg xmlns="http://www.w3.org/2000/svg" enable-background="new 0 0 256 256" viewBox="0 0 256 256"><path fill="#5FCDFF" d="M182.922,241.458H73.078c-31.731,0-57.454-25.723-57.454-57.454V71.996
					c0-31.731,25.723-57.454,57.454-57.454h109.845c31.731,0,57.454,25.723,57.454,57.454v112.007
					C240.377,215.735,214.653,241.458,182.922,241.458z"/><path fill="#73D7F9" d="M94.078,241.462H75.5c-33.068,0-59.881-24.685-59.881-55.129V69.667
					c0-30.443,26.813-55.129,59.881-55.129h18.577c-33.068,0-59.881,24.685-59.881,55.129v116.666
					C34.197,216.776,61.01,241.462,94.078,241.462z"/><path fill="#30B6FF" d="M240.381,69.667v116.666c0,30.443-26.813,55.129-59.881,55.129h-18.577
					c33.068,0,59.881-24.685,59.881-55.129V69.667c0-30.443-26.813-55.129-59.881-55.129H180.5
					C213.568,14.538,240.381,39.224,240.381,69.667z"/><path fill="#FFE2E2" d="M127.464,104.27c0,0-4.911-20.344,14.169-29.951c17.894-9.01,33.077,0.784,39.736,4.273l18.505-7.407
					l-11.532,17.53l15.823-5.926c0,0-1.609,8.888-15.018,15.801c0,0,4.827,57.033-53.1,80.983c0,0-44.786,17.283-84.209-8.148
					c0,0,36.205,4.197,44.786-12.345c0,0-14.214,4.938-28.964-19.505h15.286c0,0-25.209-5.721-24.673-29.773l12.068,3.108
					c0,0-21.186-15.061-7.241-37.775C63.1,75.136,84.018,103.282,127.464,104.27z"/><path fill="#5F266D" d="M182.922,10.542H73.078c-33.887,0-61.455,27.568-61.455,61.455v112.007
			c0,33.886,27.568,61.455,61.455,61.455h109.844c33.887,0,61.455-27.568,61.455-61.455V71.997
			C244.377,38.11,216.809,10.542,182.922,10.542z M236.377,184.003c0,29.475-23.979,53.455-53.455,53.455H73.078
			c-29.476,0-53.455-23.979-53.455-53.455V71.997c0-29.475,23.979-53.455,53.455-53.455h109.844
			c29.476,0,53.455,23.979,53.455,53.455V184.003z"/><path fill="#5F266D" d="M202.761 79.043l-4.338 1.625 4.792-7.285c2.143-3.255-1.196-7.363-4.828-5.912l-16.794 6.722-5.461-2.862c-11.321-5.933-25.231-6.158-36.298-.585-14.233 7.166-17.373 20.334-16.958 29.303-37.693-2.718-56.38-27.051-56.566-27.3-1.664-2.24-5.121-2.144-6.619.293-8.028 13.078-5.827 24.605-1.005 32.782-2.301-.246-4.359 1.54-4.412 3.889-.271 12.124 5.419 20.57 12.198 26.042-2.48.771-3.576 3.666-2.237 5.886 8.465 14.028 17.07 19.263 23.47 21.025-9.827 5.978-27.89 5.649-35.407 4.785-4.191-.482-6.173 5.05-2.629 7.335 26.941 17.379 62.942 18.137 87.906 8.483 37.517-15.511 56.163-48.838 55.667-82.366 12.937-7.561 14.783-16.983 14.858-17.402C208.652 80.457 205.67 77.956 202.761 79.043zM185.16 98.928c.045.541 3.948 54.379-50.55 76.912-.373.144-32.762 12.225-65.601-.208 11.652-.881 25.727-4.229 31.164-14.708.754-1.454.586-3.234-.486-4.473-1.071-1.239-2.752-1.711-4.298-1.174-.415.125-9.329 2.563-20.208-11.7h7.764c2.037 0 3.748-1.53 3.976-3.555.227-2.024-1.104-3.896-3.09-4.346-.819-.186-18.389-4.371-21.191-20.617l6.704 1.726c1.856.479 3.796-.438 4.612-2.179.817-1.741.273-3.821-1.286-4.946-.672-.485-14.995-11.083-8.653-27.455 8.278 8.435 29.042 25.285 63.356 26.064 2.733.006 4.578-2.454 3.979-4.938-.171-.705-3.982-17.353 12.079-25.439 8.803-4.432 19.908-4.231 28.987.526l7.093 3.717c1.035.543 2.257.604 3.343.17l6.672-2.67-4.527 6.882c-2.121 3.224 1.132 7.297 4.745 5.944l3.776-1.415C188.119 95.408 184.832 95.055 185.16 98.928zM157.412 213.243h-43c-2.209 0-4 1.791-4 4s1.791 4 4 4h43c2.209 0 4-1.791 4-4S159.621 213.243 157.412 213.243zM182.352 213.243h-9.939c-2.209 0-4 1.791-4 4s1.791 4 4 4h9.939c2.209 0 4-1.791 4-4S184.561 213.243 182.352 213.243z"/></svg>