<svg xmlns="http://www.w3.org/2000/svg" enable-background="new 0 0 256 256" viewBox="0 0 256 256"><path fill="#FF4A73" d="M225.862,206H30.138c-10.601,0-19.195-8.594-19.195-19.195V69.195C10.944,58.594,19.537,50,30.138,50
				h195.723c10.601,0,19.195,8.594,19.195,19.195v117.61C245.056,197.406,236.463,206,225.862,206z"/><path fill="#FFE2E2" d="M151.045,124.312l-46.091-26.61c-2.839-1.639-6.388,0.41-6.388,3.688v53.221
				c0,3.278,3.549,5.327,6.388,3.688l46.091-26.61C153.885,130.049,153.885,125.951,151.045,124.312z"/><path fill="#F973A3" d="M45.14,206h-15c-10.6,0-19.2-8.59-19.2-19.19V69.19c0-10.6,8.6-19.19,19.2-19.19h15
				c-10.6,0-19.2,8.59-19.2,19.19v117.62C25.94,197.41,34.54,206,45.14,206z"/><path fill="#EA2A6A" d="M245.06,69.19v117.62c0,10.6-8.6,19.19-19.2,19.19h-15c10.6,0,19.2-8.59,19.2-19.19V69.19
				c0-10.6-8.6-19.19-19.2-19.19h15C236.46,50,245.06,58.59,245.06,69.19z"/><path fill="#5F266D" d="M225.861,46H30.139C17.349,46,6.943,56.405,6.943,69.195v117.61c0,12.79,10.405,23.195,23.195,23.195
			h195.723c12.79,0,23.195-10.405,23.195-23.195V69.195C249.057,56.405,238.651,46,225.861,46z M241.057,186.805
			c0,8.378-6.816,15.195-15.195,15.195H30.139c-8.379,0-15.195-6.816-15.195-15.195V69.195C14.943,60.816,21.76,54,30.139,54
			h195.723c8.379,0,15.195,6.816,15.195,15.195V186.805z"/><path fill="#5F266D" d="M153.045 120.848L153.045 120.848l-46.09-26.611c-5.507-3.179-12.389.791-12.389 7.153v53.221c0 6.359 6.88 10.333 12.389 7.152l46.09-26.61C158.552 131.974 158.555 124.028 153.045 120.848zM149.045 128.224l-46.09 26.61c-.051.03-.131.075-.259 0-.13-.075-.13-.165-.13-.224V101.39c0-.06 0-.149.13-.224.103-.06.174-.05.259 0l46.09 26.611c0 0 0 0 0 0 .052.03.13.075.13.224S149.097 128.194 149.045 128.224zM218.5 64.75c-2.209 0-4 1.791-4 4v29c0 2.209 1.791 4 4 4s4-1.791 4-4v-29C222.5 66.541 220.709 64.75 218.5 64.75zM218.5 108.75c-2.209 0-4 1.791-4 4v6.34c0 2.209 1.791 4 4 4s4-1.791 4-4v-6.34C222.5 110.541 220.709 108.75 218.5 108.75z"/></svg>